<?xml version="1.0" standalone="no"?>
<!DOCTYPE svg PUBLIC "-//W3C//DTD SVG 20010904//EN"
 "http://www.w3.org/TR/2001/REC-SVG-20010904/DTD/svg10.dtd">
<svg version="1.0" xmlns="http://www.w3.org/2000/svg"
 width="1920.000000pt" height="1080.000000pt" viewBox="0 0 1920.000000 1080.000000"
 preserveAspectRatio="xMidYMid meet">
<metadata>
Created by potrace 1.16, written by Peter Selinger 2001-2019
</metadata>
<g transform="translate(0.000000,1080.000000) scale(0.100000,-0.100000)"
fill="#000000" stroke="none">
<path d="M9437 10600 c-42 -4 -83 -12 -90 -17 -6 -6 -31 -17 -55 -26 -23 -10
-60 -28 -82 -42 -44 -28 -55 -31 -44 -13 4 6 -4 3 -18 -8 -15 -11 -23 -25 -20
-33 3 -9 1 -12 -6 -7 -7 4 -12 1 -12 -7 0 -18 -34 -49 -44 -40 -4 5 -6 1 -4
-7 2 -8 -2 -14 -9 -15 -16 0 -50 -46 -69 -92 -24 -57 -23 -191 2 -240 10 -21
24 -43 29 -49 6 -6 19 -23 30 -38 45 -63 89 -121 95 -126 12 -11 69 -105 65
-108 -2 -2 -20 6 -39 18 -77 47 -285 45 -389 -4 -117 -55 -194 -156 -185 -241
4 -34 2 -45 -8 -45 -8 0 -14 5 -14 10 0 15 -56 37 -132 50 -52 9 -79 9 -120 0
-103 -23 -131 -32 -157 -50 -14 -9 -47 -29 -73 -44 -27 -15 -48 -33 -48 -41 0
-8 -4 -15 -10 -15 -6 0 -10 -28 -10 -64 l0 -64 -53 -51 c-30 -28 -60 -64 -68
-79 -8 -15 -20 -33 -26 -40 -7 -7 -13 -20 -13 -27 0 -8 -9 -17 -21 -20 -53
-17 -149 27 -221 102 -25 27 -58 57 -73 67 -14 11 -38 30 -53 43 -15 13 -30
23 -34 23 -3 0 -30 19 -60 43 -64 51 -131 97 -142 97 -4 0 -20 8 -34 19 -15
10 -38 22 -51 26 -12 4 -38 17 -57 30 -19 13 -53 26 -77 30 -23 4 -47 11 -53
16 -19 15 -146 29 -269 28 -195 0 -334 -30 -535 -115 -120 -51 -264 -126 -275
-144 -4 -6 -23 -19 -43 -31 -65 -35 -105 -67 -207 -168 -90 -88 -185 -207
-185 -231 0 -6 -4 -10 -9 -10 -5 0 -13 -10 -17 -22 -4 -13 -10 -25 -13 -28 -4
-3 -15 -25 -25 -50 -10 -25 -22 -53 -27 -62 -13 -26 -12 -188 2 -188 21 0 -7
-140 -32 -160 -3 -3 -12 -23 -19 -45 -7 -22 -16 -48 -21 -57 -5 -9 -11 -46
-15 -83 -4 -36 -11 -68 -15 -71 -12 -7 -12 -161 0 -168 4 -3 11 -35 14 -70 3
-36 10 -73 15 -83 5 -10 16 -31 23 -48 21 -45 85 -150 111 -180 23 -27 92 -79
135 -102 38 -20 82 -25 210 -25 133 0 142 -7 46 -38 -24 -7 -43 -19 -43 -26 0
-7 -16 -16 -37 -19 -65 -10 -126 -45 -171 -100 -9 -11 -18 -12 -30 -6 -35 19
-62 53 -62 76 0 14 -4 25 -10 25 -5 0 -10 11 -10 24 0 26 -21 47 -28 28 -8
-24 -30 -11 -36 22 -9 47 -46 160 -55 166 -4 3 -15 23 -25 45 -11 22 -22 42
-25 45 -3 3 -14 21 -24 41 -10 20 -29 47 -42 60 -123 129 -234 199 -347 219
-34 7 -76 18 -91 26 -40 20 -249 19 -285 0 -15 -8 -53 -19 -84 -25 -32 -6 -77
-19 -100 -29 -24 -11 -51 -22 -60 -25 -10 -4 -18 -11 -18 -17 0 -5 -7 -10 -16
-10 -32 0 -139 -77 -235 -168 -55 -52 -99 -99 -99 -104 0 -6 -13 -27 -29 -47
-56 -72 -66 -101 -89 -258 -6 -41 -15 -57 -41 -80 -85 -71 -148 -129 -166
-153 -10 -14 -22 -27 -25 -30 -21 -17 -140 -183 -140 -195 0 -8 -3 -15 -8 -15
-10 0 -72 -123 -72 -144 0 -9 -3 -16 -8 -16 -4 0 -13 -15 -20 -32 -7 -18 -18
-41 -23 -51 -5 -9 -12 -39 -16 -65 -3 -26 -11 -53 -17 -61 -15 -19 -15 -433 0
-452 6 -8 14 -26 17 -40 9 -35 32 -87 62 -134 14 -22 28 -47 32 -55 13 -29 58
-85 99 -125 69 -67 171 -145 189 -145 5 0 27 -9 47 -20 21 -11 56 -24 78 -30
22 -5 59 -15 82 -22 24 -6 106 -11 183 -11 121 0 154 3 245 27 58 15 107 32
108 37 2 5 10 9 18 9 19 0 129 59 154 82 11 10 22 18 26 18 23 0 126 84 230
187 126 125 204 210 327 358 41 50 86 96 98 102 48 25 135 53 161 53 15 0 30
5 33 10 8 13 297 14 311 1 5 -5 27 -11 49 -14 104 -14 242 -38 260 -46 11 -5
65 -23 120 -41 55 -17 112 -40 127 -51 15 -10 30 -19 34 -19 4 0 23 -12 43
-27 20 -16 59 -43 86 -62 95 -65 256 -257 294 -353 6 -13 44 -77 85 -143 42
-66 76 -125 76 -131 0 -7 9 -14 21 -17 14 -4 18 -10 13 -18 -5 -9 -2 -10 9 -6
10 4 31 -8 59 -32 42 -36 125 -81 151 -81 7 0 18 -5 23 -10 16 -16 230 -24
289 -12 162 34 299 88 382 150 54 40 67 29 75 -63 19 -212 39 -514 41 -640 2
-87 8 -148 15 -162 11 -20 9 -26 -25 -60 -21 -21 -66 -53 -99 -70 -34 -18 -67
-39 -73 -47 -11 -14 -19 -60 -20 -121 -1 -28 -6 -32 -58 -52 -102 -38 -173
-40 -173 -4 0 9 -4 21 -10 27 -5 5 -13 39 -16 74 -4 36 -10 70 -14 75 -4 6
-11 53 -15 105 -4 52 -11 101 -16 110 -4 8 -11 32 -14 54 -8 47 -85 128 -140
146 -31 10 -41 23 -77 96 -24 47 -50 93 -58 102 -8 10 -26 39 -40 65 -13 26
-28 47 -32 47 -5 0 -8 6 -8 13 0 15 -87 107 -101 107 -5 0 -9 3 -8 8 4 27 -16
52 -42 52 -15 0 -31 -4 -34 -10 -3 -5 3 -10 13 -10 45 0 174 -171 286 -380 70
-131 86 -170 67 -170 -6 0 -1 -11 11 -25 41 -47 50 -28 18 37 -22 46 -19 59 8
35 10 -10 23 -17 28 -17 6 0 24 -15 42 -33 34 -36 53 -95 72 -237 9 -71 31
-184 56 -298 7 -35 30 -120 49 -180 18 -61 32 -65 17 -6 -17 67 -22 128 -13
144 6 8 12 12 14 10 2 -3 18 -24 36 -47 18 -24 30 -47 26 -53 -4 -6 -1 -9 7
-8 7 2 12 -3 10 -10 -1 -6 2 -11 7 -10 13 4 51 -43 44 -55 -3 -6 -1 -7 5 -3 7
4 12 3 12 -3 0 -5 -3 -11 -7 -14 -5 -2 -2 -2 5 0 14 3 39 -22 112 -111 25 -30
53 -58 64 -62 25 -8 41 10 21 26 -8 7 -15 17 -15 23 0 5 9 2 20 -8 11 -10 20
-13 20 -8 0 6 -17 25 -37 42 -100 83 -97 101 11 65 34 -12 44 -19 35 -25 -8
-5 -9 -9 -4 -9 6 0 9 -17 7 -40 -3 -33 1 -46 27 -75 17 -20 31 -39 31 -43 -1
-4 -10 4 -21 17 -11 13 -22 22 -24 19 -8 -7 30 -75 40 -71 6 2 11 -10 12 -27
1 -16 12 -50 23 -75 11 -25 18 -51 14 -58 -4 -7 -4 -9 1 -5 8 8 40 -63 64
-142 16 -55 33 -91 39 -86 2 3 -3 26 -11 53 -9 26 -21 74 -26 106 -6 32 -13
64 -17 70 -3 7 2 3 10 -7 9 -11 16 -28 16 -39 0 -10 4 -16 9 -13 4 3 17 -11
27 -32 10 -20 22 -39 25 -42 4 -3 35 -48 71 -100 35 -52 75 -111 89 -130 75
-109 349 -444 356 -436 6 5 -13 40 -30 58 -7 7 -31 40 -52 73 -22 33 -67 98
-101 145 -71 99 -93 137 -72 125 7 -5 31 -22 53 -40 68 -54 257 -176 268 -172
5 1 -7 14 -27 27 -20 14 -34 31 -31 38 3 7 0 10 -5 7 -6 -3 -38 21 -72 55
l-63 62 90 -47 c50 -25 94 -50 100 -56 5 -5 17 -9 26 -9 9 0 22 -7 29 -15 7
-8 16 -12 22 -9 5 3 14 2 21 -4 18 -13 120 -48 212 -73 115 -30 115 -30 108
-42 -4 -6 3 -8 18 -4 13 3 60 -1 104 -9 44 -9 99 -15 122 -15 23 1 45 -3 48
-10 5 -7 47 -11 119 -10 131 0 199 -4 215 -13 6 -4 15 -5 20 -2 10 6 159 -30
306 -75 218 -66 265 -79 390 -109 197 -47 209 -49 214 -45 5 6 0 7 -149 50
-69 20 -199 60 -290 89 -91 29 -205 65 -255 80 -112 34 -144 48 -95 41 19 -3
28 -2 20 2 -9 4 6 11 40 19 78 17 182 44 205 53 11 5 37 16 58 25 21 9 44 16
51 16 8 0 31 16 52 36 35 35 36 38 19 50 -10 8 -17 14 -14 15 75 14 183 12
273 -5 49 -10 101 -16 115 -15 28 2 91 -11 91 -18 0 -2 -5 -14 -11 -25 -8 -15
-8 -19 1 -13 8 5 10 -2 7 -24 -3 -17 -2 -29 2 -26 5 2 25 -5 47 -15 21 -11 53
-20 70 -20 42 0 49 -21 24 -77 -37 -83 -22 -113 65 -131 66 -14 95 -1 168 76
52 56 95 130 146 255 12 32 30 30 116 -9 58 -27 85 -47 85 -62 0 -17 -251
-262 -275 -268 -13 -3 -37 4 -59 17 -43 25 -54 21 -32 -14 26 -39 60 -50 101
-30 19 9 35 20 35 24 0 16 33 18 75 3 35 -11 54 -13 83 -4 57 16 85 13 78 -7
-4 -9 -1 -20 6 -24 9 -6 7 -16 -12 -41 -28 -38 -73 -126 -76 -148 -1 -8 -13
-40 -26 -70 l-25 -55 -84 2 c-46 1 -94 3 -106 3 -13 0 -23 5 -23 11 0 8 11 9
33 5 23 -4 28 -3 17 4 -23 15 -49 12 -72 -10 -12 -11 -31 -20 -42 -20 -14 0
-17 3 -9 8 8 5 -1 8 -22 9 -36 1 -47 -10 -20 -21 9 -3 118 -17 243 -31 276
-31 302 -35 302 -46 0 -15 44 -10 80 9 19 11 89 51 156 90 123 72 135 76 214
73 50 -2 60 -9 201 -146 86 -83 265 -293 262 -306 -2 -5 -5 -52 -8 -106 -10
-190 -13 -206 -44 -233 -54 -46 -316 -193 -397 -222 -60 -21 -252 -39 -209
-19 15 7 4 10 -42 10 -34 1 -97 8 -140 16 -103 20 -138 19 -160 -4 -13 -13
-74 -30 -223 -60 -113 -23 -228 -47 -257 -55 -28 -8 -55 -11 -58 -7 -4 3 -446
7 -983 7 -538 1 -988 4 -1002 6 -46 10 -624 17 -725 10 -86 -6 -41 -10 315
-25 805 -35 1068 -39 1707 -27 331 7 613 10 626 6 63 -15 428 50 565 102 36
14 54 16 61 9 8 -8 11 -7 11 4 0 22 104 22 154 0 97 -43 354 -12 498 60 89 44
214 129 274 186 41 38 53 57 59 90 6 36 20 55 102 135 107 105 285 296 264
283 -16 -10 -101 -88 -239 -220 -51 -49 -99 -91 -105 -93 -8 -2 -12 14 -11 48
0 28 -3 53 -8 56 -4 3 -8 12 -8 20 0 8 4 13 9 9 6 -3 -7 21 -28 52 -21 32 -56
85 -77 118 -48 73 -133 165 -208 225 -31 25 -56 48 -56 53 0 7 39 5 145 -9 21
-3 37 -3 34 0 -13 14 -205 57 -266 60 -61 3 -78 0 -163 -36 -52 -22 -132 -59
-177 -83 -79 -43 -83 -44 -140 -35 -96 14 -99 18 -51 53 60 43 160 127 152
127 -15 0 -167 -86 -215 -122 -28 -22 -53 -38 -55 -35 -5 4 50 157 72 200 9
18 32 54 52 82 34 48 34 49 8 31 -27 -17 -27 -17 -17 3 15 27 14 31 -6 25 -10
-3 -7 1 7 9 14 9 35 28 46 44 24 33 169 136 193 138 9 0 29 12 44 25 31 27 60
37 122 40 46 2 39 6 -27 15 -39 5 -48 10 -48 26 0 17 5 19 43 15 23 -3 96 -8
162 -11 66 -4 150 -12 188 -19 37 -7 67 -9 67 -4 0 4 12 8 26 8 23 0 25 3 19
30 -9 41 17 41 52 0 14 -17 27 -29 29 -27 7 7 -19 72 -41 102 -38 51 -58 95
-42 95 15 0 81 -63 83 -79 3 -24 5 -25 13 -12 7 11 14 7 30 -20 32 -51 80
-172 101 -252 11 -40 26 -90 34 -112 14 -40 14 -40 10 40 -2 44 -6 104 -9 133
-2 28 -1 52 3 52 4 0 17 -24 30 -53 20 -44 25 -49 33 -34 12 21 55 22 63 1 3
-9 4 -19 1 -24 -8 -13 29 -91 61 -129 24 -29 29 -31 34 -16 5 14 11 9 29 -26
31 -58 26 -99 -27 -259 -3 -8 -4 -19 -3 -25 1 -5 -3 -5 -10 2 -10 10 -9 23 5
65 9 29 19 82 21 118 l4 65 -8 -53 c-5 -28 -19 -82 -32 -118 l-24 -66 30 -24
29 -23 -47 -45 c-59 -55 -60 -69 -7 -63 23 2 44 8 48 12 4 4 -10 6 -30 3 -21
-2 -38 -1 -38 2 0 3 17 23 38 43 36 35 40 37 71 26 17 -6 34 -9 38 -6 10 11
-9 27 -33 27 -20 0 -24 5 -24 30 0 16 6 49 14 72 34 108 38 127 32 136 -3 6
-2 13 4 17 16 10 12 101 -5 115 -8 7 -15 9 -15 4 0 -4 -5 -3 -12 4 -7 7 -23
12 -35 12 -32 0 -69 42 -76 86 -8 45 -23 64 -52 64 -15 0 -42 21 -78 60 -31
33 -67 65 -81 72 -14 6 -26 17 -26 25 0 7 -4 13 -10 13 -5 0 -10 6 -10 13 -1
13 -34 57 -44 57 -4 0 -25 20 -49 44 -32 34 -49 43 -71 42 -24 -2 -30 -7 -33
-28 -2 -15 1 -29 7 -33 14 -8 13 -45 -1 -45 -8 0 -10 -15 -7 -44 5 -40 3 -45
-17 -50 -12 -3 -47 -2 -76 3 -30 5 -126 12 -215 15 -148 5 -163 4 -183 -13
-11 -10 -21 -23 -21 -29 0 -16 -104 -91 -149 -107 l-39 -13 -7 46 c-11 75 -8
110 15 147 15 25 18 35 8 35 -15 0 -58 -62 -58 -83 0 -8 -3 -16 -6 -19 -11
-12 -67 18 -91 51 -32 41 -114 81 -170 81 -31 0 -45 5 -52 19 -6 10 -27 29
-48 41 l-37 22 64 34 c35 19 70 34 77 34 12 0 112 144 157 225 9 17 44 73 77
125 76 118 107 183 119 252 5 29 16 91 25 138 8 47 15 100 15 118 0 30 2 33
23 26 43 -14 77 -3 143 47 75 56 162 109 183 109 20 0 127 -113 139 -148 8
-24 7 -33 -4 -43 -8 -6 -14 -16 -14 -21 0 -6 6 -5 14 1 12 10 14 2 14 -54 0
-62 2 -68 34 -99 19 -18 40 -35 48 -38 14 -4 -44 -84 -185 -253 -27 -33 -99
-121 -160 -194 -60 -74 -152 -183 -204 -243 -51 -60 -91 -112 -87 -115 7 -7
103 89 156 157 19 24 42 51 51 60 9 9 47 55 85 101 38 46 74 89 80 94 6 6 40
46 75 90 62 77 108 125 120 125 3 0 20 -7 38 -16 27 -14 51 -15 139 -9 59 4
114 11 124 16 9 5 24 32 33 60 10 28 24 63 31 78 8 14 14 34 14 44 0 9 4 25 9
35 5 9 15 37 22 62 7 25 19 56 26 70 7 14 13 33 13 42 0 9 4 19 9 22 5 4 12
24 16 46 4 22 11 40 16 40 5 0 9 8 9 18 0 10 7 27 15 38 8 10 15 31 15 46 0
15 5 30 10 33 6 3 10 14 10 23 0 9 6 29 14 43 7 14 16 36 19 50 6 25 53 59 81
59 9 0 16 5 16 11 0 5 4 8 9 4 10 -6 26 13 26 30 0 6 6 11 13 11 6 1 15 3 20
4 4 1 10 2 15 1 4 0 7 3 7 9 0 18 105 12 131 -8 13 -11 37 -22 52 -26 25 -6
28 -4 23 12 -4 12 0 25 11 33 9 8 14 9 10 2 -5 -8 0 -11 13 -10 12 1 18 7 16
14 -5 12 -4 12 69 -17 17 -7 44 -13 60 -15 17 -1 82 -27 145 -57 63 -31 131
-59 150 -63 19 -4 40 -11 45 -15 14 -12 146 -39 240 -51 44 -6 110 -15 147
-21 36 -6 86 -8 110 -4 23 4 79 11 123 15 182 20 331 92 475 231 55 53 100
104 100 113 0 10 4 17 8 17 9 0 88 117 99 146 4 11 19 37 34 59 14 22 29 49
33 60 6 19 29 39 106 89 33 21 122 47 275 80 97 21 187 70 244 132 59 64 121
170 121 205 0 14 6 31 13 37 16 17 17 380 0 437 -6 22 -19 76 -29 120 -10 44
-21 82 -24 85 -11 10 -30 61 -30 80 0 11 -4 20 -10 20 -5 0 -10 5 -10 12 0 7
-21 55 -47 108 -84 172 -263 382 -425 501 -29 21 -68 51 -87 66 -19 15 -42 32
-52 38 -111 64 -151 85 -155 85 -3 0 -38 15 -77 34 -114 53 -140 64 -182 75
-135 34 -197 52 -247 70 -121 44 -410 16 -563 -54 -16 -8 -46 -21 -65 -29 -19
-8 -62 -31 -95 -51 -33 -19 -71 -40 -85 -46 -13 -6 -27 -14 -30 -18 -3 -5 -32
-26 -65 -47 -57 -37 -127 -87 -151 -109 -6 -5 -55 -46 -107 -90 -53 -44 -96
-84 -97 -90 0 -5 -14 -21 -30 -34 -17 -13 -58 -50 -91 -82 -63 -61 -70 -62
-102 -22 -11 14 -24 20 -34 16 -11 -4 -14 -3 -9 5 5 9 -7 12 -41 13 l-48 0 29
22 c73 54 177 145 246 212 219 216 330 346 381 445 13 25 25 47 28 50 15 13
81 141 81 156 0 7 7 25 15 40 8 16 15 39 15 51 0 12 4 24 9 27 5 4 12 30 16
59 4 28 12 58 19 66 15 19 15 402 0 422 -6 8 -14 26 -18 42 -3 15 -11 27 -16
27 -6 0 -10 6 -10 13 0 22 -60 86 -114 122 -142 94 -242 110 -591 96 -116 -4
-214 -4 -220 0 -5 6 -4 9 5 9 20 0 121 50 159 79 19 14 62 58 95 97 58 68 80
112 102 209 13 56 2 238 -16 260 -4 6 -11 29 -15 53 -4 24 -13 56 -21 70 -8
15 -14 32 -14 38 0 6 -9 19 -20 29 -11 10 -20 24 -20 31 0 22 -86 98 -144 127
-74 38 -280 64 -366 48 -30 -6 -82 -13 -114 -17 -66 -7 -179 -40 -246 -73
-112 -56 -241 -128 -330 -186 -72 -47 -247 -126 -300 -136 -115 -22 -124 -22
-147 1 -14 12 -23 33 -23 50 0 16 -4 31 -9 34 -5 4 -12 24 -16 46 -4 22 -11
40 -16 40 -5 0 -9 7 -9 16 0 46 -190 315 -289 408 -106 101 -119 115 -125 151
-5 24 -2 46 10 71 17 35 70 84 92 84 7 0 12 7 12 15 0 19 -6 19 -28 -2 -11
-10 -33 -26 -51 -35 -41 -23 -65 -78 -58 -137 4 -40 13 -52 99 -135 137 -132
273 -322 331 -461 38 -92 51 -169 50 -295 -2 -317 -163 -565 -455 -699 -45
-21 -108 -44 -138 -51 -30 -7 -50 -15 -44 -17 20 -7 185 47 284 92 123 57 205
68 265 37 22 -11 47 -28 56 -38 74 -84 110 -290 73 -414 -58 -196 -290 -349
-528 -350 -87 0 -137 15 -184 56 -34 29 -37 36 -37 85 0 39 8 69 28 109 15 30
21 46 12 35 -74 -91 -84 -190 -25 -250 31 -32 102 -65 142 -65 15 0 16 -4 8
-26 -6 -14 -10 -61 -10 -105 0 -76 -2 -82 -30 -111 -26 -26 -36 -29 -65 -24
-19 4 -36 2 -40 -4 -3 -5 3 -10 13 -10 11 0 39 -16 63 -36 60 -50 91 -64 145
-64 60 0 126 37 144 80 17 41 -4 97 -47 126 -36 24 -33 34 9 34 65 0 192 -119
225 -210 14 -41 17 -139 4 -172 -43 -114 -320 -208 -489 -166 -64 16 -90 34
-114 82 -32 64 -67 95 -126 112 -108 32 -218 -4 -330 -106 -68 -63 -205 -140
-249 -140 -13 0 -34 5 -45 11 -15 8 -18 8 -14 0 5 -7 1 -8 -9 -5 -9 4 -14 13
-11 20 3 8 -1 14 -10 14 -8 0 -17 -7 -20 -15 -10 -24 -34 -18 -34 10 0 45 22
73 75 100 71 34 167 124 245 230 60 81 71 91 136 121 77 35 176 119 224 189
43 63 72 157 69 229 -1 34 -7 64 -13 68 -6 4 -28 8 -49 8 -25 0 -43 7 -54 20
-10 11 -24 20 -31 20 -24 0 -236 222 -320 335 -45 61 -107 160 -137 220 -49
99 -62 137 -80 228 -3 16 -10 25 -16 21 -7 -4 -8 -42 -4 -113 5 -79 3 -130 -9
-200 -37 -215 -114 -430 -204 -568 -8 -13 -12 -23 -9 -23 3 0 27 34 53 75 45
71 48 74 62 54 8 -11 25 -25 39 -30 24 -9 24 -11 10 -27 -8 -9 -19 -30 -23
-47 -7 -33 -2 -30 39 26 21 30 31 36 54 33 24 -4 25 -3 8 5 -11 5 -30 10 -42
10 -54 2 -83 101 -42 142 24 24 39 21 59 -14 12 -22 12 -29 2 -39 -11 -11 -16
-9 -27 6 -13 17 -15 17 -21 3 -27 -71 167 -30 279 60 23 18 47 33 53 33 13 0
54 -42 54 -56 0 -13 -93 -67 -152 -89 -27 -10 -48 -22 -48 -27 0 -5 9 -4 19 2
31 16 93 12 128 -10 51 -31 80 -102 63 -158 -11 -41 -5 -41 16 0 32 61 4 133
-69 178 l-27 17 48 30 48 30 50 -44 c27 -24 68 -55 91 -69 l42 -25 -33 -92
c-75 -206 -115 -288 -211 -432 -64 -96 -177 -229 -228 -268 -20 -15 -67 -41
-104 -58 -67 -30 -330 -109 -363 -109 -17 0 -275 179 -363 253 -58 48 -103
132 -153 285 -19 59 -39 115 -44 124 -16 29 -12 93 8 110 16 15 92 51 92 44 0
-2 -7 -21 -16 -42 -14 -33 -14 -51 -5 -126 27 -209 137 -376 299 -451 182 -86
416 -89 566 -9 143 76 310 321 281 412 -5 15 -15 20 -44 20 -44 0 -82 -23 -65
-40 8 -8 14 -7 23 4 13 16 54 10 48 -8 -5 -16 -114 -51 -237 -76 -70 -15 -145
-22 -225 -23 -110 -1 -126 1 -195 27 -105 41 -162 70 -265 139 -92 61 -145
104 -145 119 0 14 38 8 44 -7 8 -21 38 -19 34 3 -2 9 -23 27 -47 38 -53 25
-54 25 104 52 61 11 127 27 148 35 42 18 43 17 21 -24 -8 -17 -14 -38 -12 -47
3 -12 11 -4 26 25 12 23 22 47 22 53 0 6 14 28 30 49 17 21 33 55 37 77 7 44
0 42 -26 -8 -27 -49 -104 -84 -241 -108 -155 -28 -216 -46 -272 -82 -59 -37
-87 -82 -94 -150 l-6 -53 22 42 c33 63 46 71 58 31 6 -18 13 -55 17 -83 16
-116 115 -315 186 -375 l50 -42 -3 -56 c-3 -52 -6 -58 -33 -72 -46 -23 -200
-20 -249 4 -41 21 -76 68 -75 101 0 12 3 15 6 7 7 -19 43 15 43 41 0 31 -79
100 -139 121 -91 32 -212 18 -251 -28 -16 -21 -53 -20 -93 1 -41 21 -56 41
-57 74 0 15 -7 43 -15 63 -17 40 -9 98 20 142 23 35 113 90 176 108 30 8 46
15 36 15 -29 2 -12 16 75 67 46 26 88 53 95 60 7 7 43 22 80 34 38 13 75 28
83 34 8 6 32 20 54 31 49 25 138 122 184 202 33 57 41 64 87 79 27 9 59 23 70
30 24 17 21 17 -39 -1 -62 -19 -156 -19 -200 -1 -68 28 -94 81 -75 152 12 45
64 118 94 133 20 9 20 10 -1 10 -37 2 -90 -46 -125 -113 -25 -46 -21 -118 7
-161 21 -32 74 -60 132 -70 23 -4 42 -10 42 -15 0 -19 -93 -131 -162 -196 -52
-48 -90 -74 -119 -83 -24 -7 -60 -20 -79 -29 -19 -8 -43 -16 -52 -17 -16 -2
-193 -100 -378 -208 -216 -127 -452 -263 -520 -300 -41 -22 -107 -59 -145 -82
-69 -40 -309 -155 -325 -155 -4 0 3 35 17 78 43 137 29 242 -33 242 -14 0 -69
-25 -121 -55 -95 -54 -96 -54 -132 -39 -19 8 -44 22 -54 32 -19 17 -51 72 -45
76 19 15 210 105 232 110 31 8 66 40 66 61 0 17 -68 85 -84 85 -8 0 -24 8 -36
18 -25 20 -63 9 649 192 209 54 536 156 671 209 99 40 80 39 -55 -3 -113 -35
-142 -34 -130 4 4 14 -4 20 -41 29 -106 27 -214 110 -214 165 0 8 -5 18 -11
22 -17 10 -4 117 21 168 28 59 94 133 149 168 25 15 38 28 29 28 -9 0 -44 -21
-78 -46 -62 -45 -62 -45 -95 -30 -18 9 -41 16 -51 16 -26 0 -178 -51 -185 -62
-7 -11 -283 100 -449 181 -151 73 -235 96 -411 111 -213 18 -407 -8 -553 -74
-90 -40 -219 -130 -271 -189 -25 -28 -58 -59 -72 -67 -14 -9 -34 -31 -44 -50
-23 -42 -25 -100 -5 -100 9 0 17 -15 21 -38 13 -81 109 -191 216 -247 66 -34
76 -37 162 -38 66 0 114 6 169 21 74 21 121 40 403 169 253 116 343 142 525
153 89 5 142 4 185 -5 118 -25 315 -102 315 -124 0 -4 18 -28 39 -52 45 -52
118 -94 179 -104 27 -4 46 -14 53 -27 6 -11 9 -21 7 -22 -9 -8 -440 -125 -678
-185 l-275 -69 -40 35 c-77 67 -254 139 -308 126 -28 -7 -57 -32 -57 -49 0
-23 -102 -126 -119 -120 -9 3 -43 15 -76 27 -47 17 -82 21 -160 21 -107 0
-136 -6 -425 -95 -323 -98 -498 -82 -636 58 -134 138 -192 374 -146 596 18 88
91 292 112 313 5 5 -1 21 -13 38 -18 24 -22 43 -22 101 1 63 6 83 42 160 204
428 782 778 1286 777 129 0 246 -23 363 -70 136 -54 364 -207 492 -330 83 -80
152 -118 237 -129 l54 -8 31 63 c38 77 93 134 167 174 32 17 49 28 38 24 -58
-20 -61 -18 -64 30 -3 72 19 106 97 148 97 52 169 71 261 66 174 -8 303 -125
375 -343 9 -27 28 -63 42 -80 19 -22 21 -23 10 -5 -9 14 -28 63 -42 110 -32
103 -54 149 -98 198 -66 74 -85 147 -53 208 38 73 147 149 250 175 76 19 196
8 257 -24 29 -15 56 -24 61 -21 16 9 49 -85 54 -154 6 -66 5 -67 -27 -92 -62
-48 -150 -19 -164 54 -3 18 1 51 10 76 l15 45 -19 -25 c-95 -121 13 -276 138
-200 17 11 32 17 32 13 0 -16 -52 -94 -72 -108 -13 -8 -17 -15 -11 -15 23 0
93 93 108 143 35 117 7 230 -90 370 -35 51 -86 124 -113 162 -86 124 -95 197
-37 313 63 126 195 227 345 266 191 49 389 24 500 -64 53 -42 136 -210 104
-210 -3 0 -25 12 -50 26 -50 29 -99 28 -127 -4 -22 -24 -47 -97 -47 -136 1
-79 84 -228 185 -331 84 -86 308 -222 379 -229 24 -3 119 -39 161 -61 62 -32
173 -116 216 -163 69 -76 106 -144 125 -232 19 -88 49 -135 39 -60 -21 145
-67 230 -187 345 -93 89 -138 165 -138 230 1 48 48 119 113 166 89 67 275 139
356 139 17 0 31 5 31 11 0 10 -49 8 -80 -3 -8 -3 -44 -11 -80 -17 -133 -22
-292 -128 -356 -236 -25 -44 -26 -49 -14 -88 8 -23 21 -51 30 -62 9 -11 20
-28 24 -38 5 -17 1 -16 -36 6 -50 28 -168 77 -189 77 -8 0 -27 7 -44 16 -16 9
-57 30 -90 47 -198 99 -311 213 -395 395 -33 72 -21 192 22 218 6 4 43 -1 84
-11 115 -29 127 -4 58 121 -36 67 -90 120 -129 130 -14 3 -25 10 -25 15 0 5
-6 9 -13 9 -8 0 -27 6 -43 14 -36 17 -213 26 -317 16z m3355 -1160 c142 -21
238 -80 297 -183 69 -123 110 -326 89 -452 -21 -131 -125 -261 -278 -347 -63
-36 -90 -46 -109 -41 -23 5 -24 4 -13 -9 17 -21 155 -28 345 -17 301 18 463
-24 581 -150 121 -130 147 -326 77 -588 -85 -319 -214 -522 -516 -814 -181
-176 -279 -246 -417 -299 -158 -61 -273 -67 -483 -25 -105 21 -136 34 -133 54
2 12 -4 15 -22 14 -53 -6 -72 -15 -142 -74 -40 -34 -82 -68 -93 -75 -23 -15
-140 -54 -161 -54 -8 0 -23 -9 -35 -21 -15 -15 -38 -23 -83 -26 -33 -3 -58 -2
-54 2 8 8 -116 45 -222 66 -77 16 -222 6 -295 -20 -141 -50 -309 -187 -382
-311 -72 -122 -90 -300 -48 -455 13 -44 25 -94 28 -112 13 -71 122 -220 260
-356 114 -112 223 -196 357 -274 52 -31 134 -79 182 -107 48 -28 88 -54 88
-58 0 -12 -75 -50 -144 -74 -77 -27 -90 -29 -81 -14 8 13 9 13 -72 -6 -93 -22
-228 -15 -306 16 -32 12 -88 44 -123 71 -36 27 -64 42 -64 35 0 -8 7 -19 15
-26 12 -10 12 -17 3 -34 -17 -32 -40 -45 -79 -46 -36 0 -93 33 -131 76 -30 35
-57 108 -64 177 -4 37 -10 67 -15 67 -4 0 -17 26 -29 58 -48 126 -113 310
-126 357 -34 123 -64 368 -67 557 -4 173 -37 25 -37 -161 0 -256 68 -529 173
-693 18 -29 41 -73 51 -98 17 -45 17 -48 -6 -130 -34 -126 -31 -321 10 -635
48 -364 84 -785 67 -785 -4 0 -23 13 -42 30 -60 53 -108 34 -174 -66 -42 -65
-47 -69 -144 -115 -92 -43 -192 -79 -221 -79 -7 0 -1 30 18 88 44 129 57 218
58 397 0 104 7 207 20 295 43 297 51 1021 15 1370 -33 317 -92 628 -154 815
l-20 60 56 53 c30 29 53 56 50 59 -4 3 -38 -15 -76 -39 l-70 -45 -193 -8
c-212 -8 -229 -12 -299 -78 -41 -37 -59 -97 -59 -189 0 -68 15 -51 29 32 21
121 26 132 92 173 l60 37 184 0 c101 0 190 -3 199 -6 9 -3 16 -18 16 -33 0
-14 13 -87 29 -161 28 -124 67 -358 70 -405 0 -11 5 -51 11 -90 16 -114 28
-235 32 -320 l3 -80 -66 -7 c-36 -3 -144 -9 -240 -12 -223 -8 -303 -16 -291
-28 13 -13 377 -11 500 3 52 6 95 9 97 7 3 -3 9 -143 6 -171 -1 -15 -4 -16
-23 -6 -33 17 -33 17 -14 38 11 12 13 21 7 25 -15 9 -81 -53 -81 -76 0 -11
-27 -48 -60 -82 -33 -35 -60 -69 -60 -77 0 -8 -18 -25 -40 -39 -49 -30 -46
-39 4 -9 20 12 38 20 40 18 2 -2 10 -19 19 -38 16 -32 16 -33 -2 -28 -13 3
-21 -1 -24 -14 -3 -11 1 -19 10 -21 9 -2 37 -55 66 -123 60 -142 64 -186 24
-310 -18 -56 -21 -74 -10 -60 14 19 15 16 8 -35 -4 -30 -9 -156 -11 -280 -4
-216 -4 -225 -24 -232 -46 -17 -293 -11 -425 11 -189 30 -347 60 -354 66 -3 3
-6 32 -7 63 -1 64 -11 102 -24 102 -9 0 -8 -27 5 -129 l4 -33 -37 7 c-20 4
-52 8 -72 10 -79 8 -507 230 -678 352 l-63 45 6 66 c6 65 8 68 63 121 31 29
78 73 104 98 l47 44 30 -22 c17 -13 31 -26 31 -30 0 -4 15 -3 32 2 62 17 76
13 83 -28 10 -57 36 -146 41 -140 2 2 -6 55 -18 118 -12 63 -24 107 -26 98 -2
-11 -18 -18 -49 -23 -41 -5 -50 -3 -74 20 l-28 27 56 69 57 70 53 -59 c47 -51
55 -56 72 -46 16 10 29 9 68 -9 52 -23 234 -51 271 -41 12 3 22 11 22 18 0 8
-8 11 -20 8 -20 -5 -279 41 -315 57 -11 5 -33 13 -49 17 -22 7 -38 25 -62 70
l-33 60 36 93 36 92 113 -4 c62 -2 111 0 108 4 -3 4 18 8 46 8 32 0 49 -4 45
-10 -9 -15 8 -12 31 5 10 8 28 15 39 16 17 1 17 2 3 6 -10 2 -18 9 -18 15 0 7
-4 7 -13 0 -6 -6 -88 -14 -180 -18 l-168 -7 22 54 c46 115 89 235 89 247 0 19
28 26 45 12 8 -7 15 -10 15 -7 0 3 26 -1 58 -9 70 -16 104 -18 82 -4 -8 5 -24
10 -35 10 -11 0 -32 6 -47 14 -15 8 -41 17 -58 21 -17 4 -33 12 -36 19 -6 15
43 207 56 220 5 5 6 14 4 20 -3 7 22 102 55 212 113 379 118 413 73 466 -39
46 -152 209 -152 221 0 5 8 6 18 2 100 -42 221 -78 290 -87 78 -9 87 -12 114
-44 34 -39 48 -43 48 -14 0 36 -41 65 -110 79 -36 7 -117 28 -180 48 -204 62
-207 63 -226 104 -19 44 -15 53 39 81 23 11 61 34 84 49 27 19 54 29 78 29 20
0 45 5 56 10 17 10 19 7 19 -27 1 -38 1 -38 14 -13 7 14 23 81 35 150 13 69
26 142 29 162 l7 37 95 -70 c52 -38 118 -81 145 -94 l50 -24 150 39 c83 22
157 41 165 42 22 4 24 -38 6 -135 -9 -46 -16 -94 -16 -108 l0 -24 18 23 18 23
46 -21 c25 -11 54 -32 63 -47 29 -45 97 -124 102 -119 6 6 -38 100 -67 144
l-22 32 24 0 c13 0 33 -7 45 -15 12 -9 71 -31 130 -51 l107 -35 88 12 c48 7
91 10 94 6 4 -4 -8 -37 -26 -74 -44 -91 -58 -133 -70 -210 -14 -86 2 -116 19
-36 16 70 76 255 96 294 8 15 24 34 35 42 11 8 40 42 63 75 23 33 72 94 109
135 l68 75 59 -24 c80 -32 159 -39 251 -21 149 30 239 80 290 162 24 39 30
138 11 174 -6 11 -11 24 -11 30 0 35 286 66 375 41 102 -29 173 -99 160 -159
-9 -41 -95 -132 -156 -165 -29 -16 -78 -38 -108 -48 l-56 -19 45 5 c137 15
230 37 300 70 74 34 74 35 30 29 -25 -4 -59 -14 -76 -23 -17 -10 -46 -21 -65
-25 l-34 -7 57 58 c76 78 84 91 86 144 2 60 -31 101 -112 139 -99 48 -206 51
-395 11 l-55 -12 -65 70 c-92 97 -136 124 -196 120 -64 -4 -66 -23 -9 -79 59
-58 58 -78 -9 -129 -73 -54 -102 -53 -185 9 l-32 25 22 25 c40 45 48 69 48
138 0 38 3 84 6 104 l6 37 89 7 c49 3 89 10 89 14 0 5 18 11 39 15 22 3 62 17
89 31 27 14 53 25 57 25 12 0 79 54 110 89 16 19 36 40 43 47 6 7 12 16 12 20
0 4 8 17 19 28 34 39 51 117 51 240 0 63 -4 117 -9 120 -5 4 -12 24 -16 47 -4
22 -13 43 -21 46 -8 3 -14 11 -14 18 0 25 -52 75 -98 96 -37 17 -59 20 -109
16 l-63 -5 36 41 c21 22 56 60 78 83 23 23 54 65 71 92 27 45 34 51 74 56 24
3 80 24 125 45 149 72 267 98 364 81 260 -45 329 -74 416 -173 52 -60 126
-168 126 -184 0 -4 13 -33 29 -64 16 -31 36 -83 46 -115 10 -33 21 -63 25 -69
9 -12 22 -98 22 -140 0 -57 -15 -166 -23 -171 -5 -3 -9 -15 -9 -27 0 -42 -49
-165 -77 -195 -7 -7 -13 -20 -13 -28 0 -8 -4 -14 -9 -14 -5 0 -12 -8 -16 -19
-3 -10 -38 -52 -78 -92 -86 -89 -118 -126 -143 -165 -10 -16 -24 -33 -31 -39
-23 -20 -73 -126 -79 -168 -7 -53 -21 -92 -50 -139 -18 -28 -43 -46 -109 -77
-90 -44 -106 -57 -52 -46 119 26 227 133 227 226 0 73 90 215 243 381 132 144
185 235 213 368 24 116 24 294 0 380 -38 139 -164 359 -252 440 -49 45 -178
110 -259 129 -27 7 -87 17 -132 22 -123 14 -201 -2 -357 -71 -138 -61 -176
-75 -176 -66 0 3 11 38 24 78 32 95 49 224 40 304 l-6 64 54 0 c113 0 241 51
459 182 349 211 569 274 821 238z m-2757 -1355 c10 -16 41 -58 67 -92 26 -35
48 -65 48 -67 0 -7 -191 -113 -217 -120 -18 -6 -22 -2 -28 26 -9 41 -32 68
-58 68 -16 0 -18 4 -12 23 27 82 55 206 65 291 l13 99 51 -99 c28 -55 60 -112
71 -129z m-5250 -109 c44 -8 103 -23 130 -32 200 -69 364 -240 442 -459 25
-72 28 -93 28 -205 -1 -114 -3 -131 -29 -193 -90 -215 -265 -375 -576 -528
-168 -82 -430 -122 -556 -84 -164 49 -218 227 -139 460 3 11 -1 8 -9 -7 -22
-37 -46 -143 -46 -204 0 -117 57 -213 152 -254 126 -56 390 -28 598 62 25 11
76 29 113 39 189 53 309 151 552 449 78 96 158 189 177 207 87 77 153 86 243
33 70 -42 186 -155 204 -198 7 -17 18 -30 24 -29 6 1 12 -11 13 -28 2 -16 6
-44 9 -61 6 -26 -1 -40 -49 -104 -51 -68 -69 -99 -47 -86 4 3 13 -13 20 -34
12 -42 65 -110 85 -110 6 0 43 -21 81 -46 100 -65 368 -199 460 -229 109 -37
230 -62 365 -76 115 -12 156 -28 146 -56 -8 -19 83 -148 156 -223 71 -73 145
-119 244 -152 51 -17 62 -23 48 -29 -37 -15 -275 -6 -434 16 l-35 5 30 -10
c63 -21 252 -50 325 -50 98 0 226 22 340 59 50 16 90 25 90 20 0 -21 131 80
220 170 105 106 156 191 186 311 34 136 -5 419 -78 564 -58 115 -160 198 -224
182 -21 -6 -54 0 -124 21 -16 5 -23 0 186 121 78 45 144 82 147 82 3 0 1 -15
-4 -32 -14 -50 -11 -80 13 -118 12 -19 21 -43 19 -52 -4 -28 28 -66 73 -88 54
-26 80 -25 106 2 17 18 32 23 77 23 l57 0 33 -63 c18 -35 33 -77 33 -93 0 -18
4 -28 10 -24 15 9 12 -11 -3 -27 -9 -9 -16 -52 -20 -123 -6 -119 -27 -217 -83
-390 -154 -479 -572 -898 -1011 -1011 -84 -22 -114 -25 -208 -21 -78 3 -128
10 -173 26 -71 24 -162 80 -162 99 0 6 -6 12 -14 12 -14 0 -81 73 -124 135
-11 17 -51 87 -87 155 -84 156 -155 252 -243 328 -96 82 -149 117 -255 167
-214 101 -428 144 -708 145 -168 0 -263 -16 -351 -61 -57 -29 -149 -103 -223
-180 -53 -55 -50 -53 26 17 47 43 101 87 120 98 32 18 31 15 -17 -35 -28 -30
-91 -101 -140 -159 -199 -235 -367 -378 -548 -465 -154 -74 -258 -99 -411 -98
-149 2 -243 24 -375 90 -77 39 -111 64 -181 133 -71 71 -93 101 -132 180 -58
119 -84 215 -93 338 -10 166 36 372 122 544 89 177 241 369 368 464 l59 45 5
62 c8 134 71 257 193 379 116 116 276 215 416 258 126 38 250 47 368 26z
m2355 -378 c61 -29 109 -57 107 -63 -4 -12 -140 -53 -178 -54 -53 -2 -161 123
-145 166 11 28 96 9 216 -49z m3425 -29 c-1 -103 -41 -186 -136 -280 -58 -59
-149 -119 -178 -119 -6 0 4 23 22 51 24 40 43 56 82 74 80 36 111 113 60 153
-24 19 -24 20 -5 37 23 21 40 12 40 -23 1 -24 2 -25 11 -9 6 10 8 29 5 41 -4
18 1 26 27 38 28 14 30 17 14 23 -11 5 -33 1 -53 -8 -39 -19 -42 -13 -23 43
13 37 57 61 104 57 l30 -2 0 -76z m-3675 26 c0 -22 112 -129 162 -155 72 -37
119 -80 116 -104 -4 -30 -59 -25 -144 14 -71 32 -118 37 -146 16 -10 -7 -52
-44 -94 -82 -43 -38 -84 -74 -93 -81 -9 -7 -11 -13 -5 -13 5 0 40 20 77 45
l66 44 11 -39 c6 -21 26 -56 45 -77 20 -21 46 -54 58 -72 28 -44 65 -66 146
-86 80 -21 111 -14 111 23 0 37 73 100 95 82 18 -15 19 -32 5 -74 -66 -204
-82 -287 -58 -302 14 -9 -269 -52 -357 -55 l-60 -2 60 -8 c33 -5 81 -6 108 -3
26 3 47 4 47 1 0 -2 -20 -17 -45 -32 -24 -16 -43 -31 -40 -33 6 -6 70 16 155
54 49 21 106 37 164 45 88 11 91 13 138 59 33 33 48 55 48 74 0 30 8 32 108
14 63 -10 77 -9 184 17 111 26 126 27 294 23 203 -5 192 1 224 -108 66 -227
67 -416 2 -564 -57 -127 -216 -301 -308 -335 -30 -12 -59 -21 -63 -21 -11 0
-21 50 -21 104 0 46 -23 149 -41 190 -13 28 -29 35 -29 11 0 -20 3 -20 -93 20
-93 38 -221 63 -497 95 -435 51 -486 64 -740 184 -96 46 -208 96 -248 112 -58
22 -81 37 -111 73 -47 58 -71 97 -71 113 0 7 44 47 97 88 53 41 127 101 166
133 38 32 94 75 123 94 30 20 54 38 54 40 0 10 -169 -98 -240 -152 -150 -115
-124 -68 57 103 140 131 239 219 393 349 47 40 105 99 130 132 46 62 60 73 60
46z m2258 -244 c148 -107 322 -174 487 -186 100 -7 242 10 359 44 38 12 71 19
73 17 2 -2 -16 -27 -39 -55 -76 -92 -241 -156 -373 -145 -43 4 -47 3 -25 -7
43 -19 205 -5 282 24 86 33 98 16 30 -44 -61 -53 -112 -82 -192 -109 -57 -19
-78 -22 -165 -16 -190 12 -313 65 -410 178 -39 46 -97 152 -88 162 12 12 24 6
71 -38 60 -55 129 -93 204 -112 77 -20 86 -12 12 12 -122 38 -233 139 -280
254 -35 87 -37 87 54 21z m-2141 -48 c40 -16 73 -30 73 -33 -1 -4 -148 -89
-170 -98 -10 -4 -30 54 -30 87 0 30 25 71 43 71 7 0 45 -12 84 -27z m7541
-109 c26 -8 29 -24 5 -25 -10 0 27 -9 82 -18 430 -77 836 -342 1077 -703 155
-232 241 -506 241 -763 -1 -146 -20 -242 -69 -342 -64 -129 -169 -197 -379
-246 -150 -35 -185 -49 -274 -107 -64 -43 -76 -55 -77 -79 -2 -60 -147 -277
-253 -379 -74 -72 -199 -147 -291 -176 -319 -101 -771 -28 -1071 174 -83 56
-215 190 -258 263 -141 240 -132 431 36 710 93 154 282 358 417 449 236 161
528 190 766 77 101 -48 117 -61 140 -114 48 -110 61 -252 35 -364 -52 -218
-222 -352 -535 -422 -154 -34 -131 -41 29 -8 209 42 334 101 424 199 153 165
180 402 71 628 -123 256 -462 381 -890 328 -404 -49 -791 -214 -996 -423 -120
-122 -179 -207 -281 -408 -78 -153 -116 -202 -186 -234 -28 -14 -52 -23 -54
-20 -2 2 -25 33 -52 69 -27 36 -70 90 -97 121 -26 31 -48 59 -48 62 0 3 28 21
63 41 166 93 439 349 972 910 99 104 236 241 305 304 360 329 751 520 1040
507 47 -3 95 -7 108 -11z m-5811 -184 c19 -15 21 -20 9 -20 -13 0 -16 -10 -16
-50 0 -29 5 -52 13 -57 7 -4 23 -25 36 -45 12 -21 37 -48 54 -60 29 -21 43
-23 164 -23 l133 0 0 -27 c0 -56 -16 -76 -72 -91 -68 -19 -233 -37 -327 -37
l-73 0 6 78 c3 42 10 97 15 122 12 58 6 90 -35 174 l-33 69 50 -6 c27 -3 61
-15 76 -27z m1837 -95 c46 -22 56 -32 84 -89 l32 -65 -22 -27 c-13 -15 -32
-35 -43 -45 -11 -10 -47 -54 -80 -98 -67 -89 -97 -111 -148 -111 -20 0 -39 -4
-42 -10 -8 -12 -152 -13 -159 -1 -3 4 -27 14 -53 21 -27 7 -64 23 -83 36 -39
26 -144 54 -204 54 -37 0 -38 1 -31 27 4 16 7 29 8 29 28 21 78 34 126 34 48
0 71 6 118 32 97 53 128 74 193 135 46 42 79 64 124 79 83 29 118 28 180 -1z
m-1574 -314 c0 -5 -35 -28 -77 -51 -43 -23 -88 -50 -99 -61 -12 -11 -27 -19
-35 -17 -24 5 -21 -38 7 -103 35 -85 68 -131 154 -214 l72 -70 -7 -48 c-3 -26
-37 -145 -76 -265 -38 -119 -88 -289 -110 -377 -48 -192 -87 -333 -98 -360 -5
-11 -13 -42 -20 -70 -14 -63 -110 -372 -125 -404 -24 -52 -338 -348 -450 -423
-23 -16 -49 -28 -58 -28 -10 0 -18 -5 -18 -10 0 -6 -26 -27 -57 -47 -32 -20
-75 -50 -96 -67 l-37 -30 -55 18 c-30 9 -55 20 -55 24 0 4 -25 36 -55 71 -31
35 -54 66 -51 69 9 8 120 52 133 52 8 0 13 25 15 77 l3 77 85 52 c47 28 96 63
110 76 27 26 60 136 106 353 22 106 56 337 50 343 -4 3 -34 -125 -86 -373 -24
-110 -47 -204 -51 -209 -5 -6 -9 23 -9 67 0 117 -19 405 -36 552 -8 72 -18
153 -21 180 l-5 51 68 50 c158 116 332 308 437 481 79 132 176 397 192 528 10
75 11 78 36 80 13 2 83 8 154 15 72 7 132 14 134 16 8 8 31 4 31 -5z m2196
-418 c148 -170 214 -255 208 -265 -5 -8 3 -13 176 -114 181 -107 225 -138 304
-218 85 -88 234 -263 363 -427 45 -57 120 -142 167 -189 47 -47 86 -89 86 -93
0 -13 33 -53 123 -147 45 -47 115 -125 155 -172 40 -48 80 -93 91 -100 10 -7
19 -17 21 -23 1 -5 5 -16 8 -23 6 -18 -17 -90 -40 -124 -20 -29 -23 -42 -8
-33 15 9 14 7 -39 -117 -27 -63 -66 -169 -87 -234 -20 -65 -38 -121 -41 -123
-2 -3 -18 10 -36 28 -25 23 -47 34 -87 40 -29 5 -61 6 -71 4 -29 -8 -88 17
-107 45 -10 15 -19 57 -23 102 -7 85 -30 139 -85 200 -34 37 -141 100 -171
100 -34 0 4 21 91 50 82 27 253 114 281 142 7 7 4 7 -10 0 -11 -5 -76 -29
-145 -52 -150 -49 -346 -134 -378 -163 -23 -21 -42 -73 -42 -117 0 -14 -4 -31
-9 -39 -11 -17 -28 -11 -91 31 l-35 23 22 -36 c22 -35 22 -37 8 -125 -26 -155
-20 -147 -71 -90 -46 50 -114 178 -114 214 0 33 22 72 40 72 10 0 37 -7 60
-15 61 -22 60 -12 -1 18 l-53 25 103 51 c111 56 181 86 251 107 l45 14 -58 -6
c-47 -5 -70 -1 -127 21 -39 15 -70 31 -70 36 0 6 8 24 17 42 9 18 20 52 23 76
6 39 6 42 -6 26 -13 -17 -15 -17 -39 -1 -15 10 -44 35 -66 57 -21 21 -42 39
-46 39 -5 0 -30 21 -58 46 -27 25 -88 66 -135 91 -214 116 -354 219 -496 364
-192 197 -251 306 -278 509 -28 214 -3 300 127 437 69 73 198 173 222 173 6 0
65 -62 131 -137z m-3960 78 c5 -5 61 -14 124 -20 111 -9 137 -14 280 -49 86
-21 190 -68 196 -90 3 -9 9 -24 14 -33 5 -9 12 -59 16 -112 6 -93 6 -95 -17
-110 -13 -8 -57 -23 -97 -33 -68 -17 -74 -17 -101 -1 -16 9 -35 17 -43 17 -24
0 -136 58 -190 98 -29 22 -71 59 -92 83 -44 49 -136 182 -136 197 0 5 -11 21
-25 36 l-24 26 42 0 c24 0 47 -4 53 -9z m2843 -1406 c9 -5 11 -58 7 -207 -6
-190 -7 -201 -31 -242 -14 -24 -34 -46 -45 -49 -17 -4 -23 4 -39 61 -11 37
-22 80 -26 96 -4 17 -9 25 -13 19 -5 -7 -16 4 -29 28 -12 21 -18 41 -14 44 5
2 13 -7 20 -22 6 -14 14 -23 17 -20 3 3 0 15 -6 27 -11 20 -10 21 44 19 31 -1
57 -1 58 2 2 2 14 17 28 33 l25 30 -32 -22 c-21 -15 -46 -22 -80 -22 -48 0
-50 1 -71 41 -22 40 -22 43 -5 59 10 9 39 46 65 83 46 64 47 65 81 57 19 -4
40 -11 46 -15z m476 -42 c7 -50 54 -131 99 -173 36 -33 143 -41 192 -15 33 17
35 17 136 -15 l103 -33 165 7 c207 8 314 35 358 91 23 29 48 20 119 -45 30
-28 59 -50 64 -50 12 0 12 -47 0 -54 -13 -9 -20 -69 -9 -88 5 -10 19 -18 31
-18 12 0 34 -8 50 -18 l27 -19 -97 -49 c-54 -27 -104 -54 -111 -61 -7 -7 -17
-13 -22 -13 -5 0 -22 -12 -39 -26 -29 -24 -31 -30 -31 -91 0 -68 14 -109 52
-155 13 -14 32 -39 43 -54 11 -15 32 -42 47 -61 24 -30 26 -40 21 -91 -3 -31
-14 -77 -25 -100 -19 -44 -105 -183 -118 -192 -4 -3 -35 -54 -69 -115 -68
-121 -123 -179 -207 -220 -28 -14 -55 -25 -60 -25 -11 0 -46 34 -74 71 -26 35
-116 57 -159 40 -36 -15 -56 -37 -66 -71 -3 -14 -13 -40 -21 -57 l-15 -33 -37
16 c-20 9 -42 18 -48 20 -6 3 -16 16 -22 30 -10 21 -18 24 -70 24 -65 0 -85
-15 -100 -72 -7 -28 -15 -35 -53 -45 -24 -6 -81 -12 -126 -12 l-82 -1 -17 38
c-32 72 -51 117 -63 155 -12 37 -12 40 17 70 16 18 46 58 65 89 45 72 72 81
127 44 46 -30 79 -34 81 -8 6 75 -12 372 -23 378 -4 3 -8 38 -9 77 0 40 -4
106 -9 147 -5 41 -16 128 -23 192 -8 65 -20 125 -28 134 -20 24 -20 440 0 477
20 38 28 34 36 -20z m-471 -505 c-2 -35 -5 -127 -8 -205 -6 -151 -26 -425 -32
-432 -2 -2 -12 3 -21 11 -10 8 -26 18 -37 22 -17 6 -18 13 -12 74 4 37 11 148
16 247 5 99 14 196 19 215 15 49 63 140 72 134 4 -2 5 -32 3 -66z m2034 -59
c17 -6 32 -14 32 -17 0 -4 -25 -20 -55 -36 -30 -15 -75 -46 -100 -68 -25 -22
-48 -39 -50 -37 -5 6 13 100 26 130 19 47 59 55 147 28z m-3902 -163 c-6 -31
-3 -36 64 -91 74 -62 186 -135 326 -211 46 -25 84 -51 84 -56 0 -6 3 -9 6 -6
3 3 45 -11 94 -33 140 -60 476 -154 545 -152 11 1 71 -6 134 -14 76 -10 176
-13 295 -11 152 2 183 1 193 -12 11 -13 12 -13 13 1 0 9 7 22 15 29 14 12 14
15 0 36 -8 13 -15 45 -15 71 l0 47 40 -39 c40 -40 40 -40 34 -100 -3 -33 -13
-94 -21 -135 l-14 -75 -95 -91 c-133 -128 -124 -139 29 -33 30 22 35 12 18
-35 -10 -24 -9 -24 27 -20 84 12 141 28 220 65 56 26 84 34 87 26 25 -84 60
-188 71 -209 8 -15 14 -33 14 -41 0 -14 -90 -59 -145 -73 -16 -4 -110 -34
-208 -66 -101 -33 -183 -55 -190 -51 -7 4 -73 8 -147 8 -74 1 -160 6 -190 12
-30 6 -89 16 -130 23 -277 44 -567 160 -865 345 -77 48 -150 94 -163 102 -30
19 -282 400 -317 481 l-28 63 43 45 c25 24 47 44 51 44 4 0 18 -19 32 -43 72
-123 145 -197 307 -313 48 -34 43 -27 -45 61 -132 131 -242 284 -260 362 -15
66 -7 83 50 108 44 20 48 18 41 -19z m4402 -309 c32 -33 33 -94 2 -119 -43
-35 -250 -19 -236 18 3 7 26 40 53 74 l48 62 54 -5 c39 -4 61 -13 79 -30z
m-1465 -568 c60 -31 60 -35 8 -113 -26 -39 -67 -106 -90 -148 -24 -43 -45 -78
-47 -78 -12 0 -71 34 -91 52 l-22 20 24 37 c13 20 29 59 36 86 7 28 23 74 36
103 l24 52 50 0 c28 0 60 -5 72 -11z m-334 -89 c26 -27 46 -40 64 -40 32 0 35
-19 11 -56 -18 -27 -12 -27 -129 8 -76 23 -85 30 -78 59 6 23 59 69 79 69 8 0
32 -18 53 -40z m476 -60 c78 -37 94 -54 76 -82 -7 -12 -38 -66 -68 -122 -61
-112 -100 -169 -124 -184 -14 -9 -144 10 -157 23 -3 2 2 15 11 28 20 31 137
292 137 306 0 25 25 61 43 61 10 0 47 -13 82 -30z m358 -194 c18 -7 43 -25 56
-39 l23 -26 -23 -22 c-13 -12 -62 -48 -107 -80 l-84 -58 -33 22 -33 22 63 66
c34 37 71 81 81 98 21 36 16 35 57 17z"/>
<path d="M9170 4547 c0 -47 9 -80 38 -136 4 -7 26 -21 49 -30 22 -9 47 -21 55
-28 25 -21 246 -50 336 -44 12 0 22 7 22 14 0 15 41 57 56 57 5 0 18 -13 29
-29 28 -39 96 -114 100 -109 2 2 -23 35 -55 73 -33 39 -59 77 -59 85 0 25 48
73 62 62 9 -8 12 -4 13 11 1 12 4 38 8 57 l7 35 -16 -34 -15 -34 -28 24 c-20
18 -22 19 -9 3 29 -35 29 -34 -104 -175 -28 -30 -22 -30 -214 -3 -76 10 -125
22 -160 40 -27 15 -51 27 -52 28 -2 2 -7 27 -13 56 -26 136 -50 173 -50 77z"/>
<path d="M9646 4173 c4 -15 7 -30 8 -33 3 -15 -37 -90 -63 -118 -17 -18 -36
-42 -41 -52 -6 -11 -23 -26 -38 -34 -24 -12 -45 -12 -164 4 -74 9 -140 20
-146 24 -6 3 -13 2 -17 -3 -10 -17 139 -50 239 -53 68 -1 125 21 133 53 3 10
11 19 18 19 7 0 35 33 62 73 30 45 54 71 63 68 44 -11 98 -11 124 -2 42 17 25
24 -23 11 -55 -15 -118 2 -131 35 -14 36 -32 42 -24 8z"/>
<path d="M9110 3232 c32 -21 219 -80 287 -91 88 -14 253 -14 273 -1 8 5 10 10
4 10 -102 1 -485 59 -559 85 -15 5 -16 4 -5 -3z"/>
<path d="M9248 9111 c147 -55 219 -150 195 -256 -6 -25 -9 -45 -7 -45 12 0 45
76 46 107 1 21 12 54 25 74 25 39 33 103 15 121 -9 9 -12 4 -12 -20 0 -36 -24
-102 -37 -102 -4 1 -20 18 -34 38 l-26 38 21 17 c20 17 20 17 -5 2 -24 -14
-29 -14 -72 11 -29 16 -68 27 -104 30 l-58 5 53 -20z"/>
<path d="M7817 8928 c-31 -68 -39 -112 -35 -179 9 -125 80 -204 207 -233 81
-18 172 -7 223 28 44 30 71 85 62 130 -13 71 -121 130 -165 90 -25 -23 -21
-64 7 -75 18 -6 20 -4 16 18 -5 26 -4 26 39 19 54 -9 69 -21 69 -58 0 -42 -23
-81 -70 -118 -39 -31 -45 -32 -98 -27 -173 19 -265 107 -265 256 0 36 7 90 16
120 19 63 17 77 -6 29z"/>
<path d="M9597 8849 c-31 -79 -43 -88 -132 -99 -171 -20 -183 -24 -223 -66
-45 -47 -141 -99 -198 -109 -58 -9 -184 10 -256 39 -56 23 -58 23 -41 4 25
-28 91 -65 131 -73 21 -4 32 -12 32 -23 0 -26 -45 -185 -87 -307 -35 -101 -43
-115 -98 -171 -33 -33 -87 -83 -120 -111 -63 -53 -70 -80 -12 -45 42 27 143
132 186 195 69 101 120 236 144 378 l12 74 37 3 c31 3 37 0 32 -12 -9 -22 9
-20 31 4 10 11 35 25 56 30 41 11 156 92 166 116 6 16 57 46 66 38 3 -3 22 -1
43 4 22 6 66 13 99 16 l59 7 -24 -27 c-14 -15 -47 -42 -75 -60 -95 -63 -140
-97 -181 -133 -22 -20 -53 -46 -70 -57 -16 -12 -25 -25 -21 -30 10 -10 150 -7
197 5 29 7 21 9 -47 10 -46 1 -83 3 -83 5 0 12 99 99 138 122 73 43 158 110
195 157 36 44 72 127 65 148 -2 7 -12 -8 -21 -32z"/>
<path d="M6528 5723 c-21 -2 -38 -8 -38 -12 0 -5 -30 -11 -66 -15 -37 -4 -92
-13 -123 -21 -125 -31 -177 -46 -193 -55 -10 -6 -24 -10 -33 -10 -8 0 -48 -16
-89 -35 -41 -19 -78 -35 -81 -35 -9 0 -91 -37 -157 -71 -31 -16 -87 -51 -125
-79 -90 -67 -83 -61 -128 -91 -22 -15 -57 -30 -78 -33 -48 -9 -59 -34 -39 -90
15 -45 28 -64 19 -29 -3 15 4 36 24 63 16 22 31 40 33 40 3 0 3 -15 1 -34 -4
-51 18 -52 57 -4 30 39 31 40 6 24 -49 -32 -43 3 8 50 109 101 344 230 531
293 178 60 471 127 623 144 19 2 1 4 -40 4 -41 0 -92 -2 -112 -4z"/>
<path d="M5318 5231 c-16 -14 -28 -32 -28 -39 0 -6 -4 -12 -8 -12 -4 0 -13
-26 -20 -57 -45 -209 -46 -402 -6 -650 3 -23 3 -50 -1 -60 -16 -36 -16 -75 -1
-128 14 -46 31 -69 116 -158 55 -57 116 -113 135 -123 19 -10 35 -22 35 -25 0
-4 15 -16 33 -28 17 -11 52 -36 77 -56 25 -19 74 -51 110 -72 36 -20 67 -40
70 -43 3 -4 19 -15 36 -25 42 -24 82 -88 89 -144 4 -25 10 -55 15 -66 5 -11
12 -42 15 -70 4 -27 10 -54 15 -60 4 -5 11 -26 15 -45 4 -19 11 -39 15 -45 4
-5 11 -21 15 -35 6 -21 65 -109 105 -157 6 -7 10 -15 10 -18 0 -5 28 -48 57
-84 7 -9 25 -33 40 -53 88 -117 142 -186 176 -225 20 -25 35 -48 32 -52 -2 -4
-42 -11 -87 -14 -46 -3 -96 -11 -113 -16 -16 -6 -77 -17 -135 -25 -137 -19
-171 -26 -195 -36 -11 -5 -56 -14 -99 -20 -44 -7 -89 -16 -100 -20 -12 -5 -66
-16 -121 -25 -55 -10 -104 -22 -110 -26 -5 -5 -19 -9 -32 -9 -26 0 -108 -18
-138 -31 -11 -5 -47 -13 -80 -19 -32 -5 -64 -15 -69 -20 -6 -6 -20 -10 -33
-10 -13 0 -31 -4 -41 -10 -9 -5 -43 -14 -74 -20 -32 -6 -60 -16 -63 -21 -4 -5
-18 -9 -33 -9 -15 0 -54 -12 -87 -25 -33 -14 -65 -25 -72 -25 -14 0 -164 -76
-173 -88 -3 -4 -33 -21 -66 -39 -70 -37 -112 -70 -207 -166 -160 -161 -215
-319 -179 -521 6 -32 15 -63 21 -69 6 -6 11 -17 11 -24 0 -14 8 -26 43 -64 9
-10 17 -24 17 -30 0 -6 26 -36 58 -67 114 -111 301 -182 540 -205 67 -6 122
-15 122 -19 0 -4 12 -8 26 -8 22 0 134 -42 184 -69 8 -4 33 -42 55 -85 53
-100 121 -175 222 -242 45 -30 85 -54 89 -54 4 0 30 -11 58 -24 66 -30 221
-83 316 -108 41 -11 91 -24 110 -30 19 -5 71 -18 115 -28 44 -10 87 -21 95
-24 36 -14 364 -62 490 -71 52 -4 100 -11 105 -15 9 -7 148 -20 365 -35 36 -2
106 -9 155 -15 214 -25 468 -32 1075 -32 601 0 767 5 1025 32 50 5 173 16 275
24 102 9 194 20 205 25 11 5 110 16 220 25 110 10 214 21 230 26 17 5 86 16
155 25 283 35 356 46 375 55 11 5 43 11 70 14 103 11 331 42 345 48 8 3 94 13
190 23 96 9 202 21 236 26 33 5 108 9 165 10 158 0 553 40 594 59 19 9 43 14
190 46 39 8 79 19 90 24 11 5 49 15 85 23 82 19 164 48 212 75 148 84 368 251
368 281 0 6 6 14 14 18 15 9 106 146 106 160 0 4 7 21 15 36 8 15 17 45 21 65
4 20 12 43 18 51 15 19 15 333 0 352 -7 8 -15 33 -19 57 -4 23 -11 42 -16 42
-5 0 -9 7 -9 16 0 23 -59 126 -83 147 -12 10 -52 46 -89 80 -37 34 -97 78
-135 97 -37 19 -70 38 -73 42 -3 3 -30 13 -60 21 -30 8 -61 16 -69 18 -7 2
-15 -1 -18 -7 -2 -6 20 -16 50 -23 99 -22 264 -127 351 -222 68 -76 133 -206
157 -314 15 -73 10 -227 -10 -307 -39 -153 -146 -321 -256 -406 -203 -156
-314 -213 -520 -270 -352 -96 -531 -122 -1060 -152 -98 -6 -218 -17 -265 -25
-47 -8 -174 -26 -282 -40 -109 -14 -273 -37 -365 -51 -1155 -172 -1540 -204
-2433 -205 -993 0 -1647 56 -2275 195 -416 92 -599 160 -740 274 -73 58 -155
165 -179 231 -15 43 -23 52 -54 62 -20 6 -62 24 -92 39 -38 19 -85 31 -150 40
-119 15 -299 53 -382 80 -241 81 -378 256 -378 484 0 217 125 401 385 568 158
102 314 158 731 263 427 108 688 161 1025 210 167 24 157 26 238 -64 39 -43
71 -83 71 -88 0 -5 -37 -5 -92 0 -119 12 -325 -5 -450 -37 -276 -70 -485 -210
-569 -382 -32 -64 -34 -75 -34 -169 0 -93 2 -105 33 -167 78 -159 292 -278
497 -277 33 0 101 8 150 18 l90 18 -150 -5 c-134 -4 -159 -2 -234 18 -145 40
-274 141 -329 260 -31 66 -34 177 -8 250 45 122 159 231 331 315 176 87 358
125 585 124 186 0 217 -7 263 -60 119 -137 231 -302 379 -559 111 -192 117
-205 95 -208 -28 -4 -80 9 -162 37 -33 12 -86 24 -118 27 -33 3 -64 12 -74 22
-12 12 -34 17 -77 17 l-61 0 -32 -65 c-55 -109 -74 -289 -53 -488 19 -167 90
-422 119 -422 16 0 14 6 -18 66 -23 42 -36 88 -57 211 -23 140 -26 176 -21
313 5 156 26 270 61 338 16 30 46 41 94 34 25 -4 20 -22 -7 -22 -58 0 -115
-146 -85 -219 8 -20 24 -46 35 -58 15 -15 19 -28 14 -45 -7 -20 -6 -21 8 -10
16 13 61 8 84 -10 7 -6 22 -4 41 6 35 18 45 10 82 -63 46 -92 56 -214 28 -349
-12 -54 -43 -91 -61 -73 -6 6 -18 -2 -31 -22 -28 -42 -68 -48 -91 -14 -19 29
-12 53 18 61 26 6 107 86 89 86 -7 0 -24 -12 -38 -27 -54 -59 -146 -11 -118
61 4 10 18 16 38 16 24 0 41 9 66 35 37 38 23 48 -20 15 -25 -20 -56 -25 -84
-14 -23 9 -21 76 2 97 10 10 28 17 39 17 11 0 32 9 47 21 16 13 33 18 46 14
26 -8 26 11 0 25 -14 8 -28 5 -58 -10 -33 -17 -44 -19 -66 -9 -31 15 -40 39
-32 87 5 27 4 33 -3 22 -16 -23 -13 -91 4 -110 14 -15 14 -20 0 -46 -19 -37
-19 -98 0 -114 11 -9 13 -25 9 -65 -4 -34 -2 -60 7 -76 7 -13 13 -41 14 -61 1
-44 28 -78 62 -78 38 0 26 -15 -22 -28 -45 -12 -61 -32 -26 -32 17 0 19 -5 14
-38 -3 -20 -10 -41 -14 -47 -17 -18 -9 -63 20 -102 33 -46 69 -61 211 -90 96
-20 412 -26 429 -8 6 7 -43 10 -147 11 -171 1 -377 30 -441 62 -29 14 -38 25
-47 62 -13 52 -9 60 29 53 17 -3 27 -12 27 -23 0 -36 30 -53 86 -48 42 4 54 1
63 -14 14 -23 81 -24 141 -3 31 11 46 12 56 4 21 -17 66 -13 117 10 l48 22 26
-21 c38 -30 87 -25 167 16 80 40 98 53 90 65 -3 5 -28 -4 -57 -20 -69 -39
-131 -55 -157 -41 -25 13 -70 90 -70 119 0 30 65 108 110 131 19 10 56 21 81
25 42 6 49 4 83 -26 31 -27 37 -38 34 -65 -1 -18 1 -36 4 -40 11 -10 67 16 78
37 19 35 10 44 -15 14 -14 -16 -24 -23 -23 -15 2 8 -2 14 -8 13 -6 -1 -9 10
-6 26 3 24 -3 32 -44 59 -50 34 -87 39 -156 23 -22 -5 -38 -5 -38 0 0 22 -18
6 -34 -31 -10 -22 -21 -38 -26 -35 -5 3 -14 -5 -21 -17 -12 -22 -11 -22 6 -8
17 14 17 14 7 -7 -7 -12 -17 -25 -24 -29 -7 -4 -8 -3 -4 5 19 31 -65 74 -180
91 -42 6 -88 9 -102 5 -15 -4 -45 -9 -67 -11 l-40 -4 23 19 c39 34 121 46 219
33 47 -6 96 -18 109 -27 34 -22 46 -19 92 25 62 59 147 67 213 20 34 -25 46
-21 30 9 -13 23 -44 41 -108 61 -23 7 -41 16 -38 19 8 15 -211 12 -259 -3 -27
-8 -54 -12 -59 -9 -6 3 -7 2 -4 -4 3 -5 -19 -18 -51 -27 -31 -10 -69 -25 -84
-32 -37 -19 -36 -1 2 26 32 23 106 49 160 56 19 3 44 7 55 10 49 12 229 15
273 5 105 -26 122 -32 117 -40 -2 -5 5 -11 16 -14 15 -4 20 -11 16 -21 -4 -9
-3 -16 2 -16 16 0 32 -89 21 -110 -8 -15 -8 -25 0 -38 9 -14 10 -13 4 7 -4 16
-3 21 5 17 15 -9 25 37 17 79 -6 30 -1 43 33 94 23 33 50 62 60 66 11 3 43 31
70 61 l51 56 0 -32 c0 -18 -12 -49 -29 -74 -28 -40 -50 -96 -38 -96 14 0 83
130 87 165 5 43 12 49 140 105 79 34 36 39 -51 5 -38 -14 -73 -24 -78 -20 -6
3 -8 19 -4 35 14 71 -2 99 -117 210 -82 79 -110 113 -115 138 l-7 34 48 -3
c61 -4 86 4 126 42 37 33 24 40 -16 8 -23 -18 -34 -19 -96 -13 -65 6 -70 8
-70 30 0 13 -10 34 -21 45 -57 57 -107 149 -148 272 -24 71 -41 130 -39 133 3
2 22 -21 43 -51 21 -31 76 -92 124 -137 167 -158 314 -201 911 -263 134 -14
253 -25 264 -25 11 0 16 -3 13 -7 -8 -7 -420 -32 -546 -33 -46 0 -82 -2 -80
-5 3 -2 66 -9 141 -15 111 -10 184 -9 394 4 303 19 363 27 481 61 48 14 160
43 248 65 354 85 907 266 1270 415 210 87 200 84 294 78 63 -5 82 -3 77 5 -4
7 -24 12 -44 12 -21 0 -32 4 -25 8 7 4 -14 8 -46 7 -33 0 -54 -4 -48 -8 7 -4
-6 -5 -28 -2 -30 5 -36 4 -25 -4 13 -9 12 -11 -5 -11 -12 0 -52 -11 -90 -24
-134 -46 -330 -117 -350 -126 -11 -6 -94 -34 -185 -64 -91 -29 -223 -74 -295
-99 -71 -24 -191 -64 -265 -87 -74 -23 -189 -59 -255 -81 -172 -55 -224 -66
-371 -80 -130 -12 -133 -12 -320 20 -245 42 -339 57 -509 80 -169 23 -324 54
-413 83 -76 24 -102 48 -249 228 -48 58 -99 119 -114 135 -28 32 -44 72 -108
280 -54 174 -88 332 -106 494 -9 73 -20 154 -26 179 -5 25 -10 61 -11 81 -1
20 -6 39 -11 42 -5 4 -11 26 -12 50 -3 51 -15 86 -24 70 -4 -6 -7 15 -8 46 -1
42 -7 61 -22 77 -12 11 -21 15 -21 9 0 -7 5 -15 10 -18 6 -3 10 -12 10 -18 0
-7 -7 -3 -16 8 -8 11 -13 27 -11 36 3 9 1 23 -4 30 -7 11 -9 9 -9 -6 -1 -18
-2 -18 -11 3 -5 13 -7 28 -4 32 3 5 -4 26 -15 47 -11 21 -20 43 -20 50 0 7 -4
13 -8 13 -5 0 -15 18 -22 40 -7 23 -24 55 -37 72 -13 18 -23 38 -23 46 0 8 -5
10 -12 6 -8 -5 -7 0 2 11 8 10 10 16 4 12 -16 -9 -38 19 -30 38 3 8 0 14 -7
12 -7 -1 -11 6 -9 16 2 9 -2 16 -9 15 -6 -2 -13 6 -15 16 -1 10 -6 22 -11 25
-10 8 -31 50 -36 76 -3 14 -5 11 -6 -9 -1 -37 -12 -27 -17 15 -5 37 14 68 27
47 6 -9 9 -7 9 8 0 11 15 35 33 53 49 48 64 67 72 90 3 12 10 21 14 21 4 0 18
20 30 45 12 25 27 45 32 45 6 0 8 4 4 9 -3 5 2 17 11 25 8 9 12 16 8 16 -3 0
-2 6 3 13 5 6 15 31 23 54 7 23 16 41 19 38 4 -2 13 5 20 17 7 11 8 17 2 14
-7 -5 -8 4 -4 26 4 18 7 43 8 55 0 18 4 21 30 16 17 -2 35 -6 42 -8 31 -10 -3
25 -39 40 -45 18 -68 8 -68 -29 0 -12 -6 -30 -13 -41 -8 -11 -23 -48 -35 -83
-12 -35 -52 -114 -90 -176 -39 -62 -79 -131 -91 -155 -12 -23 -25 -40 -29 -37
-4 2 -18 -17 -30 -44 -14 -29 -28 -47 -35 -44 -19 8 -69 93 -64 109 19 47
-126 761 -178 879 l-13 31 -1 -30 c0 -16 4 -49 8 -72 5 -24 7 -43 5 -43 -2 0
-63 30 -136 66 l-133 66 -65 -12 c-118 -21 -241 -64 -385 -137 -96 -48 -223
-137 -202 -141 13 -3 14 -8 6 -30 -16 -41 -23 -346 -10 -430 17 -111 80 -230
158 -302 51 -47 63 -63 63 -88 0 -17 7 -76 16 -131 9 -55 14 -107 12 -116 -3
-14 -5 -14 -23 0 -11 8 -94 64 -185 124 -91 60 -202 142 -248 183 -82 73 -162
163 -162 183 0 6 -5 16 -12 23 -6 6 -12 20 -13 29 -1 10 -5 28 -9 41 -4 12 -3
22 1 22 15 0 76 -34 123 -68 24 -18 46 -28 48 -22 2 5 -15 32 -37 59 -23 27
-41 54 -41 60 0 6 -7 11 -16 11 -49 0 -102 258 -90 445 10 159 38 297 70 344
34 49 31 67 -6 32z m1057 -137 c19 -14 78 -50 132 -80 l97 -54 42 -197 c23
-109 44 -218 48 -243 l6 -45 -30 55 c-17 30 -42 73 -55 95 -13 22 -24 45 -24
51 -1 5 -21 31 -45 57 -37 40 -45 45 -56 32 -10 -12 -2 -30 48 -102 69 -102
119 -197 156 -301 14 -40 26 -75 26 -78 0 -3 -20 9 -44 26 -78 53 -65 14 26
-79 162 -165 211 -239 371 -556 92 -183 111 -229 141 -345 20 -81 41 -196 51
-285 9 -82 27 -205 41 -273 26 -128 114 -433 138 -480 7 -15 23 -64 35 -109
12 -46 32 -113 46 -149 14 -37 25 -78 25 -92 0 -29 79 -138 123 -170 27 -18
30 -27 32 -84 3 -64 39 -178 56 -178 5 0 9 7 9 15 0 17 185 -137 194 -162 27
-70 -25 -213 -76 -213 -14 0 -78 -63 -116 -113 l-21 -28 5 73 c5 82 -10 67
-22 -22 -4 -27 -9 -50 -11 -50 -3 0 -22 9 -42 19 -106 56 -203 71 -345 52 -49
-7 -118 -23 -154 -37 -36 -13 -67 -22 -70 -19 -3 2 14 32 36 65 23 33 42 65
42 70 0 6 4 10 9 10 14 0 48 89 60 155 13 71 16 212 5 240 -4 11 -12 26 -17
33 -5 7 -31 61 -56 120 -122 278 -270 503 -529 806 -237 275 -283 333 -429
534 -140 193 -144 200 -182 317 -53 161 -67 217 -91 370 -11 72 -27 160 -36
197 -9 37 -13 75 -10 86 5 15 -10 38 -60 93 -36 41 -78 87 -91 102 -32 35 -39
74 -57 306 -10 124 -12 203 -6 236 5 28 12 64 15 82 5 29 15 36 113 83 170 82
259 119 377 155 61 19 116 34 123 35 7 0 29 -12 47 -26z m532 -3430 c17 -13
38 -21 47 -18 24 9 54 -14 66 -52 14 -40 9 -139 -7 -155 -12 -12 -116 -38
-153 -39 -65 0 -95 18 -124 75 -23 46 -27 63 -21 98 10 60 29 92 67 110 40 20
81 14 125 -19z m241 -344 c-2 -76 -9 -144 -16 -155 -6 -11 -12 -17 -12 -14 -2
35 -26 134 -42 171 l-20 47 31 27 c17 14 31 30 31 34 0 5 5 21 12 37 10 25 12
26 16 8 2 -11 2 -81 0 -155z m337 -336 c12 -5 6 -11 -26 -25 -23 -11 -52 -31
-64 -44 -21 -25 -21 -25 -55 -8 -21 10 -67 19 -117 21 -46 3 -81 8 -78 12 2 4
39 15 82 24 43 10 83 19 88 21 18 6 153 5 170 -1z m-263 -175 c29 -6 71 -20
93 -31 40 -19 40 -20 42 -80 2 -47 -2 -67 -15 -82 -16 -20 -16 -20 1 -7 9 7
17 9 17 3 0 -5 -19 -17 -41 -26 -39 -16 -44 -16 -85 1 -24 10 -44 21 -44 24 0
3 16 26 35 50 27 34 35 53 34 84 -1 41 -3 40 -13 -7 -4 -17 -18 -34 -36 -43
-34 -17 -48 -56 -32 -89 10 -22 7 -24 -59 -40 -38 -9 -74 -14 -79 -11 -23 14
-9 59 29 96 36 33 72 112 58 126 -7 6 -47 -47 -47 -63 0 -7 -13 -22 -29 -33
-16 -12 -35 -37 -41 -57 -12 -36 -12 -36 -59 -29 -79 11 -80 33 -4 90 41 31
82 85 64 85 -5 0 -12 -4 -16 -9 -13 -23 -127 -101 -145 -101 -32 0 -27 54 8
78 94 67 242 96 364 71z"/>
<path d="M8820 2868 c1 -7 19 -26 41 -43 22 -16 45 -35 52 -41 6 -5 62 -41
122 -78 61 -38 120 -74 132 -82 11 -7 29 -34 39 -60 27 -72 87 -180 92 -166 2
7 -3 23 -10 35 -8 12 -24 50 -36 85 -23 68 -18 74 33 42 109 -69 122 -63 17 7
-73 49 -78 56 -107 124 -28 66 -56 102 -70 88 -3 -3 4 -27 16 -53 11 -26 18
-50 15 -53 -5 -5 -53 24 -253 154 -46 29 -83 47 -83 41z"/>
<path d="M6106 2030 c61 -13 138 -54 168 -91 15 -17 39 -55 54 -83 24 -46 27
-61 27 -158 0 -96 -2 -109 -23 -138 -23 -30 -23 -31 -3 -21 40 22 56 69 56
171 0 83 -4 103 -29 156 -49 108 -120 159 -233 169 -52 4 -54 4 -17 -5z"/>
</g>
</svg>
