<?xml version="1.0" standalone="no"?>
<!DOCTYPE svg PUBLIC "-//W3C//DTD SVG 20010904//EN"
 "http://www.w3.org/TR/2001/REC-SVG-20010904/DTD/svg10.dtd">
<svg version="1.0" xmlns="http://www.w3.org/2000/svg"
 width="400.000000pt" height="399.000000pt" viewBox="0 0 400.000000 399.000000"
 preserveAspectRatio="xMidYMid meet">

<g transform="translate(0.000000,399.000000) scale(0.100000,-0.100000)"
fill="#000000" stroke="none">
<path d="M1745 3964 c-449 -60 -844 -254 -1161 -569 -328 -327 -524 -738 -574
-1207 -50 -472 95 -986 387 -1375 75 -100 234 -266 326 -340 40 -31 76 -60 80
-64 5 -3 -35 -94 -88 -200 l-96 -194 63 65 c35 36 102 107 150 158 l87 94 28
-20 c169 -117 498 -236 768 -277 147 -22 423 -22 570 0 427 65 799 246 1104
540 346 333 552 758 601 1234 64 641 -209 1302 -708 1710 l-91 74 95 191 95
191 -73 -75 c-40 -42 -106 -110 -147 -153 -40 -42 -75 -77 -77 -77 -2 0 -47
25 -101 55 -371 207 -826 295 -1238 239z m243 -171 l-3 -118 -110 -8 c-207
-15 -200 -15 -203 13 -2 14 -8 30 -13 35 -7 6 -8 -4 -4 -30 l7 -41 -104 -28
c-157 -44 -319 -112 -430 -182 -21 -13 -40 -24 -43 -24 -3 0 -21 25 -41 55
-21 30 -39 53 -42 50 -3 -2 11 -29 31 -60 l37 -54 -78 -58 c-42 -31 -98 -77
-125 -102 l-48 -45 -82 82 -81 81 29 32 c46 47 163 140 256 201 283 186 666
307 1002 317 l48 1 -3 -117z m306 91 c123 -17 273 -56 390 -101 113 -43 346
-159 346 -173 0 -3 -35 -43 -78 -89 l-77 -84 -93 47 c-120 60 -218 99 -322
127 -47 12 -89 25 -93 29 -5 4 -4 25 1 46 20 79 22 94 14 94 -5 0 -14 -32 -21
-71 -13 -68 -14 -70 -40 -65 -75 16 -163 26 -218 26 -96 0 -93 -4 -93 119 0
59 3 111 8 115 9 9 141 0 276 -20z m-304 -359 c0 -22 -4 -24 -87 -30 -49 -4
-110 -11 -137 -16 -27 -5 -50 -8 -51 -7 -1 2 -5 15 -9 29 -6 27 -6 27 77 38
86 12 187 18 200 13 4 -2 7 -14 7 -27z m223 14 c53 -6 99 -14 102 -18 2 -4 1
-18 -2 -30 -5 -19 -11 -22 -37 -18 -17 3 -84 11 -148 18 -111 12 -118 14 -118
34 0 12 2 24 5 27 6 6 54 3 198 -13z m-523 -28 c0 -5 3 -16 6 -25 4 -11 -5
-18 -38 -26 -148 -37 -370 -128 -450 -184 -30 -21 -33 -20 -46 8 -9 21 -8 27
11 39 141 92 517 229 517 188z m761 -22 c57 -16 157 -55 222 -86 l117 -56 -21
-23 -22 -23 -79 40 c-82 41 -298 119 -332 119 -12 0 -16 5 -12 16 3 9 6 22 6
30 0 19 2 19 121 -17z m763 -8 c28 -22 69 -58 91 -81 l39 -40 -79 -80 c-44
-44 -82 -80 -85 -80 -3 1 -34 27 -69 59 l-63 59 53 101 c30 55 56 101 58 101
2 0 27 -18 55 -39z m-1226 -227 l-3 -209 -89 -7 c-49 -5 -91 -6 -93 -5 -3 4
-83 395 -83 408 0 4 14 11 32 14 48 11 222 22 231 15 4 -4 6 -101 5 -216z
m230 205 c49 -7 82 -16 82 -23 0 -6 -20 -101 -44 -211 -38 -174 -46 -200 -61
-197 -10 2 -54 7 -99 10 l-81 7 -3 205 c-1 112 -1 209 2 215 4 12 85 9 204 -6z
m-506 -46 c0 -16 1 -35 0 -43 -1 -13 39 -194 67 -305 5 -22 9 -40 8 -40 -1 -1
-38 -11 -82 -23 -44 -13 -125 -45 -180 -72 -54 -27 -100 -48 -100 -47 -1 1
-54 82 -118 179 l-116 178 57 33 c54 31 115 61 192 95 57 25 213 71 243 71 23
1 27 -3 29 -26z m723 -4 c55 -17 144 -51 197 -76 l97 -46 -46 -54 c-25 -29
-48 -51 -51 -48 -3 3 0 11 6 17 7 7 12 19 12 28 -1 8 -17 -14 -37 -48 -20 -35
-70 -100 -112 -144 l-76 -80 -95 32 c-52 18 -97 34 -98 35 -4 3 74 376 83 403
6 16 7 16 120 -19z m-1684 -284 c-27 -27 -73 -82 -102 -120 l-54 -71 -35 19
-35 19 30 -26 30 -26 -23 -38 c-62 -102 -129 -250 -168 -370 -24 -72 -44 -139
-44 -147 0 -11 -7 -14 -22 -10 -82 18 -108 22 -108 15 0 -4 27 -13 61 -19 l61
-12 -6 -32 c-3 -18 -11 -92 -18 -165 l-12 -133 -116 3 -115 3 3 80 c16 419
211 885 496 1183 l60 63 83 -83 83 -82 -49 -51z m1847 -467 c-189 -375 -349
-683 -356 -686 -8 -2 -12 9 -12 35 0 55 -45 139 -92 173 -58 43 -131 56 -196
37 -29 -8 -54 -12 -56 -8 -3 6 1042 1131 1051 1131 2 0 -150 -307 -339 -682z
m923 509 c235 -303 376 -667 397 -1032 4 -64 5 -118 3 -121 -2 -2 -55 -4 -118
-4 l-113 0 0 53 c0 28 -7 97 -15 152 -7 55 -13 100 -12 101 1 0 18 6 37 12
l35 11 -39 -2 -38 -2 -19 70 c-41 157 -129 365 -198 470 l-20 30 54 35 c30 19
55 39 55 43 0 4 -25 -8 -55 -28 -31 -19 -57 -35 -59 -35 -2 0 -25 29 -51 65
-25 36 -70 91 -100 124 -30 32 -55 62 -55 67 0 5 35 43 77 86 l77 78 44 -43
c24 -23 75 -82 113 -130z m-2367 109 c15 -24 15 -25 -47 -69 -34 -24 -85 -65
-113 -90 -51 -46 -52 -46 -69 -27 -18 20 -18 21 11 51 22 24 193 159 200 159
1 0 9 -11 18 -24z m144 -220 c61 -94 112 -176 111 -182 0 -5 -33 -34 -73 -65
l-73 -57 -152 152 -152 153 58 50 c62 53 155 123 163 122 3 0 56 -78 118 -173z
m1762 90 c34 -36 34 -36 15 -56 -20 -19 -20 -19 -64 22 -39 36 -42 43 -32 65
13 29 29 23 81 -31z m-38 -73 c17 -18 13 -23 -104 -138 -128 -127 -140 -129
-25 -7 82 88 84 108 3 25 l-57 -58 57 117 58 117 25 -19 c15 -10 34 -26 43
-37z m-2143 -70 c-25 -26 -64 -74 -88 -105 -24 -32 -47 -58 -50 -58 -4 0 -16
6 -26 14 -18 13 -17 16 20 67 22 30 64 80 94 112 55 58 55 58 75 38 20 -20 20
-20 -25 -68z m2372 -66 c33 -43 57 -83 54 -88 -4 -5 -14 -13 -24 -19 -16 -8
-23 -3 -46 31 -14 22 -56 74 -92 116 -63 72 -64 75 -47 94 17 19 18 19 57 -18
21 -21 65 -73 98 -116z m-2157 -56 l149 -149 -59 -71 c-32 -39 -63 -70 -69
-67 -10 3 -335 213 -344 222 -2 2 1 15 8 28 17 30 149 186 159 186 4 0 74 -67
156 -149z m2016 102 c51 -58 130 -162 130 -172 0 -8 -344 -231 -356 -230 -5 0
-35 34 -68 76 l-58 76 148 148 c82 82 152 149 156 149 3 0 25 -21 48 -47z
m-1120 -33 c0 -22 -12 -26 -107 -34 -61 -6 -63 -5 -63 19 0 26 15 30 118 33
46 2 52 0 52 -18z m192 5 c10 -4 14 -14 11 -25 -5 -18 -12 -19 -82 -14 -96 7
-101 9 -101 35 0 21 3 22 78 16 43 -3 85 -9 94 -12z m-374 -33 c3 -16 -2 -22
-16 -22 -30 0 -151 -44 -222 -81 -36 -19 -68 -35 -72 -37 -4 -2 -11 6 -17 17
-10 18 -5 24 51 55 68 37 233 97 258 93 8 -1 16 -12 18 -25z m478 7 c88 -27
88 -27 69 -49 -15 -17 -19 -17 -83 3 -37 12 -68 22 -69 22 -3 1 9 45 12 45 2
0 34 -9 71 -21z m-296 -198 l0 -169 -41 -7 c-22 -4 -44 -3 -49 1 -4 5 -19 72
-34 149 -15 77 -30 150 -33 162 -5 24 10 29 105 32 l52 1 0 -169z m188 155 c2
-3 -8 -60 -22 -128 -24 -112 -30 -126 -63 -160 -22 -22 -47 -38 -60 -38 l-23
0 0 171 0 172 81 -6 c45 -4 84 -9 87 -11z m-330 -159 c18 -84 32 -160 32 -169
0 -10 -12 -18 -32 -22 -18 -4 -60 -20 -93 -36 -33 -16 -60 -28 -61 -27 -24 27
-181 283 -178 289 15 25 237 116 285 118 12 0 22 -33 47 -153z m440 129 l32
-11 -81 -88 c-45 -48 -83 -86 -85 -85 -3 3 32 170 41 196 5 13 27 10 93 -12z
m-1572 -20 c18 -14 18 -16 1 -43 -68 -106 -138 -275 -193 -460 -2 -7 -15 -13
-29 -13 -35 0 -33 21 14 161 49 143 159 369 182 369 3 0 14 -6 25 -14z m2682
-135 c54 -107 120 -286 135 -368 6 -31 5 -33 -22 -33 -27 0 -30 4 -41 53 -30
124 -108 311 -176 418 l-23 37 22 15 c14 10 26 12 34 5 6 -5 38 -62 71 -127z
m-2445 -20 c86 -57 157 -105 157 -108 0 -3 -22 -50 -50 -104 -27 -55 -59 -132
-71 -172 -11 -39 -22 -73 -23 -74 -2 -2 -318 63 -403 82 l-22 5 20 70 c36 130
101 281 167 387 24 39 28 41 47 29 11 -7 91 -59 178 -115z m517 110 c8 -17 1
-27 -56 -72 -59 -47 -67 -50 -81 -36 -14 14 -12 18 22 49 32 28 95 76 102 78
1 0 7 -9 13 -19z m1851 -115 c49 -93 115 -270 133 -358 7 -30 -4 -34 -99 -43
-27 -2 -99 -16 -160 -30 -60 -14 -121 -29 -135 -31 -24 -5 -27 -2 -44 66 -10
39 -42 119 -71 178 -37 73 -50 109 -42 114 7 4 86 54 176 112 91 59 170 105
175 103 6 -2 36 -52 67 -111z m-1732 -66 c50 -77 91 -143 91 -146 0 -8 -54
-53 -65 -54 -6 0 -64 54 -130 120 l-120 121 25 20 c36 29 103 79 105 79 2 0
44 -63 94 -140z m-311 -24 c-28 -33 -54 -62 -58 -64 -4 -1 -13 4 -20 13 -10
12 -4 25 41 80 49 61 54 64 70 49 17 -15 15 -19 -33 -78z m1533 -38 c7 -13 4
-20 -10 -28 -18 -9 -26 -3 -61 44 -36 47 -40 58 -30 76 11 20 13 19 51 -27 22
-26 45 -56 50 -65z m-1245 -193 c-14 -16 -30 -30 -38 -29 -17 1 -278 172 -278
182 0 4 21 33 47 65 l46 59 123 -123 123 -123 -23 -31z m1165 182 l29 -40 -32
-22 c-18 -12 -59 -39 -91 -59 l-57 -37 52 105 c28 58 56 102 61 99 4 -3 22
-23 38 -46z m-1532 -19 c18 -11 17 -14 -11 -62 -33 -55 -82 -173 -93 -223 -5
-26 -12 -33 -31 -33 -13 0 -24 4 -24 9 0 40 119 321 136 321 2 0 13 -5 23 -12z
m1691 -113 c34 -71 76 -202 68 -210 -2 -2 -12 -5 -22 -7 -16 -2 -22 7 -33 52
-8 30 -36 101 -63 157 -44 92 -47 104 -32 112 22 13 34 -2 82 -104z m-890 99
c0 -4 -64 -74 -142 -157 l-143 -150 -97 -191 c-95 -189 -96 -191 -109 -161
-18 45 -24 199 -9 262 43 194 195 345 391 387 71 16 109 19 109 10z m-619
-105 c128 -84 154 -109 130 -123 -5 -3 -21 -40 -36 -81 -26 -72 -29 -76 -54
-70 -14 3 -88 18 -164 34 -76 16 -141 32 -144 34 -14 14 105 297 124 297 3 0
68 -41 144 -91z m1426 15 c42 -77 90 -221 78 -232 -9 -8 -326 -75 -330 -69 -1
1 -12 31 -23 65 l-21 64 28 56 c25 50 40 64 122 118 52 34 99 61 104 60 6 -1
25 -29 42 -62z m-2300 -112 c9 -5 9 -18 3 -47 -6 -22 -13 -86 -16 -142 l-7
-103 -29 0 c-27 0 -28 2 -28 48 1 48 15 174 26 225 6 27 26 35 51 19z m255
-53 c106 -22 194 -42 196 -44 1 -1 -1 -44 -5 -96 l-8 -94 -217 -3 -218 -2 0
32 c0 42 19 207 26 231 3 9 12 17 19 17 8 0 101 -18 207 -41z m2795 -54 c6
-50 12 -111 12 -137 1 -47 0 -48 -29 -48 -29 0 -30 1 -30 48 0 27 -5 86 -11
132 -9 68 -9 84 2 91 33 21 44 5 56 -86z m-85 30 c3 -22 9 -79 13 -127 l8 -88
-216 0 c-119 0 -218 3 -220 8 -3 4 -6 45 -8 92 l-4 84 185 37 c230 46 233 46
242 -6z m-1371 -57 c89 -50 124 -169 77 -258 -73 -135 -254 -147 -342 -23 -55
78 -43 183 28 252 65 64 156 75 237 29z m-1034 14 c9 -6 11 -29 5 -87 -6 -74
-9 -80 -31 -83 l-24 -4 6 82 c8 100 13 111 44 92z m1909 -95 c7 -74 6 -77 -15
-77 -26 0 -28 5 -35 92 -4 57 -3 67 12 71 27 6 32 -4 38 -86z m-1689 51 l153
-32 0 -48 0 -48 -175 0 -175 0 0 34 c0 72 12 126 29 126 9 0 84 -14 168 -32z
m1211 -19 c43 -184 -19 -380 -157 -501 -83 -72 -218 -128 -309 -128 -33 0 -32
1 113 158 l147 157 92 183 c50 100 93 182 97 182 3 0 11 -23 17 -51z m406 4
c3 -21 6 -55 6 -75 l0 -38 -175 0 -175 0 0 44 0 43 148 31 c195 40 188 40 196
-5z m-2594 -190 c1 -47 14 -165 26 -230 6 -30 4 -33 -19 -33 -14 0 -29 -5 -33
-11 -4 -8 3 -9 25 -4 22 5 32 3 35 -7 3 -7 16 -55 30 -107 35 -124 96 -269
157 -371 27 -46 46 -86 41 -89 -5 -3 -30 -19 -55 -36 -26 -16 -47 -34 -47 -38
0 -4 25 8 55 28 31 19 57 35 60 35 2 0 23 -25 45 -55 23 -31 70 -88 105 -129
l64 -73 -83 -82 -83 -83 -78 88 c-289 331 -458 746 -477 1172 l-4 72 118 0
118 0 0 -47z m184 -45 c3 -51 9 -112 12 -134 6 -37 4 -43 -16 -49 -12 -4 -24
-4 -27 -1 -9 9 -21 86 -29 184 l-7 92 30 0 30 0 7 -92z m459 5 c3 -49 1 -90
-3 -93 -22 -13 -402 -82 -410 -74 -9 9 -30 165 -30 222 l0 32 219 0 218 0 6
-87z m117 38 c0 -27 3 -62 6 -78 5 -25 2 -31 -15 -36 -28 -7 -30 -2 -38 87
l-6 76 27 0 c25 0 26 -3 26 -49z m370 5 l0 -43 -165 -33 c-91 -18 -168 -31
-170 -28 -2 2 -8 37 -11 76 l-7 72 177 0 176 0 0 -44z m1466 -33 c-4 -43 -9
-79 -11 -81 -3 -3 -213 38 -320 63 -17 4 -20 11 -17 50 l4 45 175 0 176 0 -7
-77z m71 3 c-8 -93 -13 -105 -39 -98 -17 4 -19 10 -14 41 3 20 6 57 6 84 0 44
2 47 26 47 l27 0 -6 -74z m509 -13 c-7 -84 -22 -183 -30 -190 -4 -5 -399 78
-408 86 -4 3 -4 48 -1 99 l6 92 220 0 220 0 -7 -87z m80 0 c-3 -49 -11 -116
-17 -150 -11 -61 -12 -63 -38 -57 -14 4 -26 7 -27 8 -1 1 5 39 12 86 7 47 13
111 13 143 l1 57 31 0 32 0 -7 -87z m356 15 c-19 -423 -186 -837 -471 -1166
-40 -45 -77 -82 -84 -82 -6 0 -46 34 -89 77 l-77 76 66 76 c36 41 81 97 101
123 33 47 35 48 58 33 13 -8 29 -15 36 -15 7 0 -2 10 -20 21 l-33 21 21 32
c79 120 161 305 201 451 11 44 23 81 24 83 2 2 31 -2 64 -9 34 -6 64 -9 67 -6
3 3 -22 11 -56 18 -34 6 -64 18 -67 24 -2 7 0 39 6 70 6 32 14 100 17 151 l7
94 116 0 117 0 -4 -72z m-2453 -93 l21 -66 -29 -57 c-26 -52 -39 -64 -127
-121 -93 -59 -99 -62 -112 -44 -41 53 -122 266 -107 281 5 6 286 68 321 71 6
1 21 -28 33 -64z m1264 23 l157 -33 -6 -30 c-11 -53 -63 -178 -94 -228 l-30
-47 -103 68 c-56 38 -121 80 -143 95 l-41 26 33 66 c19 37 34 75 34 85 0 19 9
30 24 30 6 0 82 -15 169 -32z m-1643 -48 c0 -30 56 -176 91 -238 30 -53 30
-56 13 -69 -10 -7 -21 -10 -25 -6 -18 18 -89 174 -108 237 -25 82 -25 83 -3
89 30 8 32 7 32 -13z m1868 -5 c7 -6 -45 -150 -80 -220 -51 -102 -55 -107 -77
-93 -16 10 -14 18 29 103 26 51 55 122 65 159 16 59 20 66 39 60 12 -4 22 -7
24 -9z m-1968 -87 c13 -45 45 -125 72 -177 26 -52 47 -95 46 -96 -2 -1 -77
-49 -168 -108 -91 -58 -172 -109 -181 -112 -31 -12 -140 213 -194 399 -27 94
-25 104 20 107 11 1 34 3 50 4 38 4 279 55 284 61 2 2 14 4 26 4 18 0 25 -12
45 -82z m2261 30 c170 -35 199 -44 199 -60 0 -27 -57 -199 -90 -274 -39 -86
-108 -204 -120 -204 -6 0 -88 52 -184 116 l-173 115 42 75 c24 42 58 120 76
175 18 54 37 99 42 99 5 0 99 -19 208 -42z m-2721 -80 c36 -142 101 -300 169
-415 l30 -51 -24 -16 c-23 -15 -24 -15 -60 44 -68 112 -146 303 -173 427 -11
47 -8 53 24 53 19 0 25 -8 34 -42z m2088 -70 c148 -99 144 -90 73 -168 l-40
-45 -122 121 -122 122 28 36 c15 20 32 33 39 29 6 -4 71 -46 144 -95z m911 86
c7 -7 -31 -141 -66 -229 -37 -94 -110 -237 -140 -274 -17 -20 -20 -20 -40 -6
l-22 15 44 72 c52 84 126 256 150 348 9 36 19 71 21 78 3 12 38 9 53 -4z
m-2159 -155 c-28 -55 -55 -99 -60 -97 -5 2 -22 21 -39 43 l-29 40 86 57 c48
32 88 58 90 58 1 0 -21 -45 -48 -101z m1248 -176 c-12 -15 -103 -83 -110 -83
-3 0 -47 63 -99 141 l-93 141 34 29 35 28 122 -121 c95 -95 120 -125 111 -135z
m-132 -88 c7 -17 -113 -77 -215 -109 -46 -15 -85 -25 -86 -24 -4 4 -65 309
-65 323 0 7 33 24 73 39 39 15 80 33 90 41 18 13 26 3 109 -122 49 -75 92
-142 94 -148z m-1223 184 c26 -35 36 -56 32 -69 -10 -31 -20 -25 -70 39 -41
54 -44 61 -28 70 25 15 24 15 66 -40z m1535 29 c8 -8 3 -22 -20 -54 -17 -24
-41 -53 -55 -65 -22 -21 -25 -22 -40 -7 -15 15 -12 21 31 70 25 29 46 56 46
60 0 12 25 9 38 -4z m-693 -30 c20 -86 62 -314 59 -318 -9 -8 -139 -18 -147
-11 -4 4 -6 81 -5 172 l3 164 35 6 c19 4 38 7 42 8 4 0 10 -9 13 -21z m-115
-157 c0 -94 -4 -172 -9 -175 -9 -6 -149 9 -156 16 -2 2 8 57 22 123 23 112 28
123 66 163 23 23 49 42 59 42 17 0 18 -13 18 -169z m-807 67 c31 -37 57 -71
57 -75 0 -5 -67 -75 -149 -157 l-148 -148 -48 51 c-56 60 -139 170 -133 176
19 19 345 224 354 222 6 -1 36 -32 67 -69z m1877 -51 c91 -61 167 -111 169
-113 7 -6 -53 -87 -113 -152 l-59 -63 -149 148 c-81 81 -148 151 -148 155 0
16 116 146 125 140 6 -3 84 -55 175 -115z m-1230 -68 c-12 -51 -23 -96 -26
-98 -6 -7 -97 18 -108 29 -5 5 25 44 70 92 44 46 80 80 82 77 1 -3 -7 -48 -18
-100z m844 70 c-3 -5 -32 -29 -65 -55 -57 -44 -62 -45 -77 -30 -16 16 -15 19
13 39 17 12 46 36 65 54 32 29 36 30 52 16 10 -9 15 -19 12 -24z m211 -199
l149 -149 -29 -32 c-34 -35 -169 -139 -182 -139 -4 0 -60 80 -123 177 l-114
176 34 26 c19 14 50 41 70 58 19 18 37 33 40 33 3 0 73 -67 155 -150z m-355
90 c0 -22 -311 -147 -332 -134 -5 3 -8 14 -8 24 0 14 11 22 43 30 66 16 167
57 222 89 45 27 51 28 63 13 6 -9 12 -19 12 -22z m-1681 -153 l74 -89 -20 -20
-21 -20 -67 78 c-37 44 -80 98 -96 121 l-29 42 22 16 c22 15 24 15 43 -11 11
-15 53 -68 94 -117z m266 48 c-43 -47 -75 -88 -73 -91 3 -3 29 22 58 56 29 33
55 59 57 57 2 -3 -103 -214 -114 -226 -2 -3 -20 12 -41 32 l-37 37 110 110
c60 60 111 110 113 110 2 0 -31 -38 -73 -85z m2179 56 c10 -16 -156 -221 -179
-221 -7 0 -18 7 -25 15 -10 12 -1 29 57 97 39 46 78 95 88 110 14 22 21 26 35
18 11 -6 21 -14 24 -19z m-1564 -20 c43 -12 66 -24 68 -35 6 -27 -23 -29 -98
-5 -68 21 -70 23 -54 40 10 11 18 19 18 19 1 -1 30 -9 66 -19z m960 -172 c61
-94 109 -177 107 -184 -14 -36 -346 -177 -469 -199 -35 -6 -38 -5 -39 16 -5
76 -9 104 -33 208 -14 63 -30 130 -35 149 -12 39 -7 51 19 51 31 0 206 66 263
99 29 16 57 30 63 30 7 1 62 -76 124 -170z m-771 135 c66 -6 72 -9 69 -28 -3
-18 -9 -21 -48 -18 -100 5 -130 13 -130 31 0 22 10 33 26 27 7 -3 44 -8 83
-12z m261 -14 c0 -21 -24 -27 -115 -32 -44 -3 -50 -1 -53 18 -3 19 4 22 75 30
88 11 93 10 93 -16z m-490 -61 c54 -17 84 -33 83 -41 -1 -7 -20 -98 -43 -202
-22 -103 -40 -190 -40 -192 0 -10 -52 -2 -129 22 -96 29 -281 112 -281 126 0
5 21 30 46 56 27 28 41 38 34 24 -6 -13 -9 -26 -6 -29 2 -3 16 18 31 46 33 66
184 231 205 224 8 -3 53 -18 100 -34z m233 -45 l67 -7 0 -215 0 -215 -91 7
c-82 6 -188 22 -195 29 -2 2 60 304 81 396 5 20 10 22 38 17 18 -3 62 -8 100
-12z m315 -191 c23 -114 39 -210 34 -214 -10 -11 -226 -33 -246 -26 -14 6 -16
32 -16 215 l0 209 83 10 c45 6 87 11 93 12 7 0 28 -82 52 -206z m-1225 99 c16
-18 17 -23 5 -45 l-13 -25 -50 43 c-49 43 -49 44 -31 64 18 20 19 20 45 2 14
-10 34 -28 44 -39z m2042 -18 c-22 -20 -73 -61 -114 -92 -70 -53 -74 -55 -87
-37 -8 10 -14 22 -14 26 0 4 23 24 51 45 29 21 77 59 108 86 l56 47 20 -20 20
-20 -40 -35z m-2176 -101 c31 -26 60 -50 64 -53 5 -4 -15 -55 -44 -113 l-53
-106 -40 30 c-23 16 -66 52 -96 79 l-55 49 80 80 c44 45 81 81 84 81 2 0 29
-21 60 -47z m2383 -30 c43 -43 78 -81 78 -84 0 -13 -185 -162 -271 -219 -108
-71 -261 -150 -379 -195 -180 -70 -452 -125 -616 -125 l-64 0 0 113 0 113 133
13 c72 7 143 13 156 14 21 2 26 -4 32 -31 10 -51 22 -53 14 -2 l-6 45 88 21
c118 28 276 92 396 158 l98 54 37 -59 c20 -32 41 -59 45 -59 9 0 5 8 -34 66
-16 23 -29 46 -31 51 -2 6 33 37 77 71 44 33 98 76 120 96 22 19 42 35 45 36
2 0 40 -35 82 -77z m-421 -4 c9 -17 8 -23 -2 -30 -42 -27 -219 -114 -277 -135
-65 -25 -243 -76 -248 -71 -1 1 -5 14 -9 28 -6 26 -4 27 62 42 103 23 227 71
338 131 55 30 105 54 112 55 7 1 17 -9 24 -20z m-1503 -58 c82 -41 278 -111
312 -111 24 0 33 -15 25 -41 -9 -26 -37 -22 -182 26 -81 27 -253 103 -272 121
-4 4 29 44 36 44 2 0 39 -18 81 -39z m133 -244 c63 -20 127 -38 143 -42 27 -6
28 -8 22 -43 -15 -92 -14 -113 3 -47 21 82 0 76 219 54 l132 -13 0 -115 0
-114 -112 6 c-170 10 -349 45 -518 104 -89 31 -276 117 -342 159 l-48 30 80
86 79 85 114 -57 c63 -32 166 -73 228 -93z m457 94 l62 -1 0 -31 0 -32 -92 7
c-143 10 -217 25 -212 42 2 8 6 20 8 27 3 11 19 11 87 1 46 -7 112 -13 147
-13z m365 -3 c4 -12 1 -26 -6 -30 -15 -9 -125 -21 -207 -22 -63 -1 -65 0 -65
24 0 24 2 25 95 32 52 4 102 9 110 12 42 11 68 6 73 -16z"/>
<path d="M1907 3290 c3 -58 9 -123 14 -145 5 -24 6 6 2 79 -3 66 -9 131 -14
145 -5 15 -6 -18 -2 -79z"/>
<path d="M1804 3363 c2 -10 12 -73 22 -140 10 -67 20 -120 24 -118 9 6 -32
275 -42 275 -5 0 -7 -8 -4 -17z"/>
<path d="M2086 3293 c-4 -54 -8 -117 -10 -140 -2 -24 0 -43 4 -43 9 0 25 268
17 276 -3 3 -8 -39 -11 -93z"/>
<path d="M2171 3268 c-7 -62 -15 -126 -18 -143 -3 -21 -2 -26 5 -15 5 8 15 60
21 115 7 55 14 112 17 128 3 15 2 27 -3 27 -5 0 -15 -51 -22 -112z"/>
<path d="M1620 3335 c0 -20 74 -267 78 -256 2 5 -11 61 -28 123 -30 105 -49
156 -50 133z"/>
<path d="M1530 3305 c0 -5 9 -35 21 -65 60 -163 72 -191 76 -186 3 2 -14 55
-36 116 -41 112 -60 154 -61 135z"/>
<path d="M1440 3274 c0 -6 14 -42 31 -80 17 -38 42 -93 55 -123 13 -30 27 -52
30 -49 3 3 -18 56 -45 118 -57 124 -70 150 -71 134z"/>
<path d="M1366 3208 c56 -111 117 -218 121 -214 6 6 -120 246 -130 246 -4 0 0
-15 9 -32z"/>
<path d="M1270 3184 c0 -12 143 -235 148 -230 5 5 -136 236 -144 236 -2 0 -4
-3 -4 -6z"/>
<path d="M2341 3220 c-17 -66 -34 -127 -37 -135 -4 -8 -2 -15 3 -15 5 0 15 21
21 48 6 26 22 86 36 135 13 48 21 87 17 87 -4 0 -22 -54 -40 -120z"/>
<path d="M2423 3187 c-24 -67 -43 -127 -43 -132 1 -20 23 29 55 123 18 53 36
105 40 115 4 9 3 17 -1 17 -5 0 -28 -55 -51 -123z"/>
<path d="M2502 3155 c-29 -70 -51 -130 -48 -132 3 -3 11 10 19 28 8 19 31 73
52 121 20 48 35 92 33 98 -2 6 -27 -46 -56 -115z"/>
<path d="M1190 3134 c0 -5 124 -181 157 -223 2 -2 5 -2 8 0 5 5 -152 229 -161
229 -2 0 -4 -3 -4 -6z"/>
<path d="M1156 3023 c27 -32 68 -82 93 -111 24 -29 46 -50 48 -48 6 6 -169
216 -181 216 -4 0 13 -26 40 -57z"/>
<path d="M1040 3015 c0 -6 46 -55 101 -110 56 -55 93 -86 81 -70 -27 40 -182
192 -182 180z"/>
<path d="M1035 2885 c88 -82 149 -132 144 -119 -6 16 -193 184 -204 184 -5 -1
22 -30 60 -65z"/>
<path d="M910 2876 c0 -2 30 -28 68 -57 37 -29 86 -68 110 -87 23 -19 42 -30
42 -25 0 9 -203 173 -214 173 -3 0 -6 -2 -6 -4z"/>
<path d="M860 2796 c0 -5 218 -156 226 -156 15 0 -16 25 -110 89 -99 67 -116
77 -116 67z"/>
<path d="M2919 2850 c-57 -56 -97 -98 -87 -93 22 11 200 184 195 189 -3 3 -51
-41 -108 -96z"/>
<path d="M2980 2794 c-58 -47 -107 -91 -109 -97 -5 -13 -2 -11 124 92 79 65
106 91 93 91 -2 0 -50 -39 -108 -86z"/>
<path d="M3030 2725 c-58 -41 -107 -81 -109 -88 -3 -9 -1 -9 10 -1 8 6 57 42
109 79 108 77 118 85 104 85 -5 0 -57 -34 -114 -75z"/>
<path d="M913 2649 c65 -39 122 -69 127 -67 12 4 -214 138 -232 138 -7 0 40
-32 105 -71z"/>
<path d="M760 2635 c0 -8 242 -127 247 -121 5 4 -229 126 -242 126 -3 0 -5 -2
-5 -5z"/>
<path d="M725 2552 c13 -14 246 -114 252 -108 6 6 -16 17 -132 66 -131 55
-132 55 -120 42z"/>
<path d="M686 2461 c13 -12 256 -92 262 -86 3 2 -1 7 -9 10 -241 86 -275 96
-253 76z"/>
<path d="M656 2372 c12 -11 255 -75 261 -69 5 6 -29 17 -158 51 -105 28 -118
30 -103 18z"/>
<path d="M3105 2669 c-44 -27 -95 -59 -114 -70 -18 -11 -31 -22 -28 -25 5 -5
237 134 237 142 0 10 -20 0 -95 -47z"/>
<path d="M3120 2579 c-114 -60 -144 -79 -124 -79 15 0 242 119 249 131 11 17
-10 9 -125 -52z"/>
<path d="M3195 2424 c-66 -24 -126 -46 -134 -49 -8 -3 -12 -8 -9 -11 5 -4 257
82 267 92 17 16 -21 6 -124 -32z"/>
<path d="M3220 2344 c-144 -43 -144 -43 -138 -50 7 -6 250 65 263 77 14 13 2
11 -125 -27z"/>
<path d="M615 2185 c11 -5 242 -35 264 -35 8 0 12 3 8 6 -7 8 -202 34 -247 33
-19 0 -30 -2 -25 -4z"/>
<path d="M635 2091 c61 -13 245 -20 245 -10 0 5 -19 9 -42 9 -24 0 -88 2 -143
5 -69 3 -88 2 -60 -4z"/>
<path d="M3228 2171 c-59 -9 -110 -19 -114 -23 -4 -5 -3 -8 2 -8 24 0 268 41
272 45 9 8 -47 3 -160 -14z"/>
<path d="M3330 2094 c-8 -1 -59 -6 -112 -9 -54 -4 -98 -10 -98 -13 0 -9 256
11 266 21 7 7 -26 8 -56 1z"/>
<path d="M730 1919 c-146 -13 -149 -18 -5 -12 72 3 137 9 145 14 18 10 -4 10
-140 -2z"/>
<path d="M723 1831 c-56 -9 -105 -20 -110 -24 -4 -5 8 -6 27 -3 19 4 82 13
139 21 58 9 107 18 110 20 8 9 -63 3 -166 -14z"/>
<path d="M3160 1910 c86 -12 230 -19 230 -10 0 7 -165 21 -240 19 l-45 -1 55
-8z"/>
<path d="M3110 1842 c0 -5 46 -14 103 -21 56 -7 120 -14 142 -17 27 -4 35 -2
25 4 -8 5 -64 15 -125 21 -60 7 -118 15 -127 17 -10 3 -18 1 -18 -4z"/>
<path d="M840 1684 c-41 -13 -102 -30 -135 -40 -33 -9 -55 -19 -48 -21 11 -4
252 64 262 73 13 12 -12 8 -79 -12z"/>
<path d="M815 1590 c-55 -21 -109 -41 -120 -44 -10 -3 -17 -8 -13 -11 6 -6
237 73 253 86 18 17 -20 7 -120 -31z"/>
<path d="M871 1431 c-133 -70 -154 -98 -24 -33 115 59 166 89 156 94 -4 3 -64
-25 -132 -61z"/>
<path d="M925 1360 c-61 -38 -114 -71 -120 -73 -5 -2 -7 -7 -4 -10 3 -4 57 25
120 64 125 77 124 77 118 83 -2 3 -54 -27 -114 -64z"/>
<path d="M3080 1691 c0 -8 231 -71 257 -70 26 1 12 5 -131 43 -69 19 -126 31
-126 27z"/>
<path d="M3052 1615 c10 -10 268 -94 268 -87 0 4 -55 26 -123 50 -112 38 -159
50 -145 37z"/>
<path d="M3022 1545 c11 -12 258 -112 258 -106 0 5 -55 31 -122 60 -112 47
-150 60 -136 46z"/>
<path d="M2990 1482 c0 -4 56 -35 125 -70 69 -34 125 -58 125 -54 0 4 -56 35
-125 70 -69 34 -125 58 -125 54z"/>
<path d="M2950 1415 c0 -8 240 -148 245 -143 5 5 -227 148 -239 148 -3 0 -6
-2 -6 -5z"/>
<path d="M968 1287 c-94 -70 -142 -110 -108 -92 29 16 210 147 216 156 12 21
-16 4 -108 -64z"/>
<path d="M1012 1213 c-57 -47 -101 -88 -98 -90 5 -5 216 164 216 173 0 12 -25
-5 -118 -83z"/>
<path d="M1065 1145 c-55 -52 -95 -94 -90 -94 6 0 55 42 110 94 55 52 96 95
90 95 -5 0 -55 -43 -110 -95z"/>
<path d="M2915 1343 c22 -23 219 -153 223 -148 3 3 3 6 1 8 -80 62 -255 171
-224 140z"/>
<path d="M2861 1286 c43 -38 212 -166 216 -163 6 6 -196 167 -210 167 -6 0 -8
-2 -6 -4z"/>
<path d="M2820 1232 c0 -5 45 -51 100 -102 55 -50 100 -88 100 -82 0 5 -45 51
-100 102 -55 50 -100 88 -100 82z"/>
<path d="M2850 1080 c51 -55 97 -100 102 -100 5 0 -32 45 -83 100 -52 55 -97
100 -102 100 -5 0 32 -45 83 -100z"/>
<path d="M2706 1118 c8 -13 148 -184 167 -203 7 -7 8 -4 4 8 -8 22 -159 205
-170 206 -5 1 -5 -5 -1 -11z"/>
<path d="M2640 1086 c0 -5 33 -54 73 -109 39 -55 75 -105 79 -111 4 -6 9 -8
12 -5 3 3 -29 52 -70 110 -85 115 -94 127 -94 115z"/>
<path d="M2580 1034 c0 -12 143 -234 148 -229 5 4 -136 235 -144 235 -2 0 -4
-3 -4 -6z"/>
<path d="M2510 997 c0 -14 122 -238 127 -233 3 3 -20 54 -52 113 -53 102 -75
136 -75 120z"/>
<path d="M2442 960 c20 -55 113 -251 115 -243 4 12 -94 233 -109 248 -8 7 -9
5 -6 -5z"/>
<path d="M2370 935 c0 -6 9 -35 21 -65 60 -163 72 -191 76 -186 5 5 -76 236
-89 251 -5 6 -8 6 -8 0z"/>
<path d="M2310 858 c10 -35 28 -96 40 -136 12 -41 24 -72 27 -69 7 7 -69 267
-78 267 -4 0 1 -28 11 -62z"/>
<path d="M1520 928 c-77 -178 -89 -208 -82 -208 10 0 116 249 110 256 -3 2
-16 -19 -28 -48z"/>
<path d="M1606 934 c-31 -80 -85 -248 -81 -252 2 -3 7 1 10 9 64 181 85 244
82 253 -2 5 -7 1 -11 -10z"/>
<path d="M1650 798 c-18 -68 -35 -130 -38 -138 -3 -10 -2 -12 6 -5 12 12 82
265 72 265 -4 0 -22 -55 -40 -122z"/>
<path d="M1822 788 c-7 -57 -15 -121 -18 -143 -3 -26 -2 -35 4 -25 5 8 14 60
21 115 6 55 14 112 17 128 3 15 2 27 -3 27 -5 0 -15 -46 -21 -102z"/>
<path d="M1906 780 c-4 -58 -6 -123 -4 -145 2 -22 7 17 12 86 4 69 6 134 4
145 -3 10 -8 -28 -12 -86z"/>
<path d="M2143 873 c3 -10 13 -74 23 -142 10 -69 20 -119 22 -112 7 21 -30
271 -40 271 -5 0 -7 -8 -5 -17z"/>
<path d="M2077 760 c3 -69 9 -134 14 -145 10 -22 1 140 -12 220 -5 30 -6 1 -2
-75z"/>
</g>
</svg>
